<?xml version="1.0" standalone="no"?>
<!DOCTYPE svg PUBLIC "-//W3C//DTD SVG 20010904//EN"
 "http://www.w3.org/TR/2001/REC-SVG-20010904/DTD/svg10.dtd">
<svg version="1.0" xmlns="http://www.w3.org/2000/svg"
 width="960.000000pt" height="960.000000pt" viewBox="0 0 960.000000 960.000000"
 preserveAspectRatio="xMidYMid meet">
<metadata>
Created by potrace 1.14, written by Peter Selinger 2001-2017
</metadata>
<g transform="translate(0.000000,960.000000) scale(0.100000,-0.100000)"
fill="#000000" stroke="none">
<path d="M2799 8565 c-3 -2 -21 -7 -40 -10 -58 -8 -91 -16 -108 -24 -9 -5 -20
-9 -24 -9 -4 0 -29 -8 -55 -18 -207 -78 -402 -261 -493 -461 -33 -73 -70 -184
-74 -223 -2 -19 -6 -52 -10 -72 -3 -20 -7 -354 -8 -742 -2 -700 -2 -706 -22
-707 -11 0 -371 -2 -800 -3 -429 -1 -789 -6 -800 -10 -11 -4 -25 -9 -31 -11
-7 -2 -24 -20 -40 -40 -21 -28 -28 -49 -29 -88 -3 -61 15 -97 65 -135 l35 -27
905 -1 c581 0 914 3 930 10 37 14 67 44 85 83 15 31 17 119 20 846 1 447 6
826 9 842 16 74 59 178 83 203 7 7 13 18 13 23 0 6 33 43 73 83 83 84 198 147
307 169 52 11 445 13 2015 11 1073 -1 1957 -4 1965 -6 8 -2 31 -8 50 -12 19
-5 40 -12 45 -16 6 -4 22 -10 37 -14 36 -8 155 -90 196 -135 39 -41 113 -147
116 -164 1 -7 4 -16 7 -22 16 -26 38 -111 45 -165 2 -19 4 -391 4 -826 l1
-790 22 -39 c12 -21 38 -48 57 -59 35 -21 45 -21 945 -21 867 0 911 1 940 18
97 59 105 189 16 263 l-35 29 -808 1 c-444 0 -811 4 -815 7 -3 4 -7 328 -8
720 -1 391 -5 735 -9 762 -12 79 -45 184 -79 255 -17 36 -33 67 -36 70 -3 3
-12 17 -20 32 -8 15 -22 37 -33 47 -10 11 -18 23 -18 27 0 15 -149 153 -209
193 -80 55 -187 104 -271 126 -36 9 -74 20 -85 23 -23 8 -4019 15 -4026 7z"/>
<path d="M6457 7844 c-1 -1 -18 -5 -37 -8 -82 -12 -179 -79 -246 -167 -20 -27
-47 -121 -49 -174 -8 -154 50 -270 226 -450 149 -152 176 -183 200 -234 34
-73 7 -141 -56 -141 -45 0 -75 32 -75 80 0 26 -8 48 -23 66 -23 26 -27 27
-123 26 -94 -1 -100 -2 -121 -27 -30 -34 -30 -103 -2 -188 86 -257 410 -333
603 -141 128 128 142 333 36 506 -37 59 -55 81 -160 188 -170 175 -202 216
-213 280 -6 28 -2 41 16 62 49 60 124 32 132 -49 8 -85 25 -94 162 -91 111 2
126 15 126 108 0 186 -160 346 -356 354 -21 1 -39 1 -40 0z"/>
<path d="M2829 7820 c-76 -40 -74 -30 -72 -445 2 -649 4 -749 15 -790 14 -56
64 -114 119 -139 45 -21 58 -22 365 -21 315 1 320 1 361 24 58 33 85 94 69
161 -5 25 -19 54 -31 66 -19 20 -75 45 -85 39 -6 -3 -10 -1 -10 5 0 6 -4 8
-10 5 -14 -9 -174 -10 -188 -1 -7 4 -12 4 -12 -1 0 -4 -26 -7 -57 -5 -70 3
-61 3 -151 -1 -42 -1 -77 2 -80 8 -7 10 -8 65 -12 660 -3 341 -7 372 -47 413
-39 40 -120 51 -174 22z"/>
<path d="M3283 7824 c-44 -15 -58 -28 -81 -74 -17 -36 -18 -60 -15 -401 5
-407 5 -411 75 -453 36 -22 48 -23 181 -22 92 1 150 6 164 14 31 17 55 66 49
100 -2 15 -5 30 -5 34 -2 14 -52 58 -69 59 -9 1 -51 3 -92 4 -41 1 -80 3 -85
4 -6 0 -10 37 -10 88 l0 86 73 3 c41 1 79 8 88 15 21 18 41 60 39 85 -7 83
-36 107 -133 107 l-67 0 -2 73 c-1 41 2 75 5 75 4 1 49 2 101 3 92 1 93 2 122
34 47 53 34 139 -25 164 -38 15 -269 17 -313 2z"/>
<path d="M4246 7832 c-36 -8 -80 -38 -110 -76 l-31 -38 0 -601 c0 -776 4 -902
30 -942 28 -42 54 -65 100 -86 35 -16 63 -18 205 -15 91 2 183 9 205 16 171
52 293 190 322 365 14 81 7 283 -12 348 -18 64 -52 128 -90 171 l-25 29 21 31
c24 36 58 110 67 146 4 14 7 90 7 170 l0 145 -38 79 c-26 51 -57 96 -93 132
-53 52 -149 107 -209 120 -34 7 -320 12 -349 6z m304 -300 c31 -13 76 -59 88
-92 11 -28 14 -138 5 -188 -3 -20 -21 -48 -45 -72 -43 -42 -86 -55 -163 -48
l-40 3 -2 200 c-1 142 2 202 10 207 16 10 115 3 147 -10z m37 -694 c64 -42 77
-81 78 -229 0 -121 -1 -128 -28 -167 -38 -58 -76 -75 -180 -81 -95 -6 -98 -5
-98 54 1 50 -1 221 -2 333 l-2 124 96 -4 c84 -3 101 -6 136 -30z"/>
<path d="M5217 7827 c-24 -6 -46 -21 -61 -41 -28 -36 -49 -103 -35 -112 5 -3
6 -10 3 -16 -9 -15 -11 -78 -2 -78 4 0 3 -13 -2 -30 -5 -16 -5 -30 -1 -30 8 0
7 -42 -2 -57 -4 -5 -4 -13 0 -16 3 -4 7 -227 9 -496 1 -270 6 -507 9 -528 4
-21 7 -44 8 -50 0 -7 5 -13 10 -13 6 0 8 -3 4 -6 -12 -13 46 -108 97 -159 44
-44 138 -101 186 -113 8 -2 50 -6 92 -9 61 -4 90 0 147 17 39 13 76 29 82 36
6 8 17 14 24 14 7 0 38 28 70 61 58 63 99 139 110 206 4 21 6 216 5 433 -3
767 -6 873 -20 911 -19 52 -71 84 -135 83 -61 0 -96 -22 -123 -76 -18 -34 -19
-64 -16 -455 1 -230 3 -422 4 -428 1 -5 2 -12 1 -15 -5 -13 -5 -120 -1 -120 5
0 5 -104 0 -125 -1 -5 -2 -12 -1 -15 6 -14 3 -119 -3 -147 -14 -59 -96 -105
-161 -89 -13 3 -40 22 -58 41 l-34 35 -3 168 c-1 92 -3 336 -5 542 -5 552 -6
582 -21 612 -28 54 -105 82 -177 65z"/>
<path d="M3015 6103 c-127 -28 -195 -50 -266 -85 -193 -94 -340 -242 -434
-437 -30 -63 -67 -177 -74 -232 -1 -3 -414 -5 -918 -4 -785 1 -924 -1 -957
-14 -73 -27 -111 -86 -102 -160 6 -52 28 -86 76 -118 l33 -23 1029 0 1029 0
39 26 c47 31 68 80 75 172 2 37 7 80 10 97 9 42 55 156 74 181 9 12 23 32 31
44 46 69 148 154 228 191 98 44 150 54 277 53 82 0 113 -5 175 -28 250 -90
393 -282 414 -558 7 -89 24 -121 88 -161 24 -15 102 -17 937 -17 958 0 940 -1
987 45 33 32 45 62 50 128 8 118 22 174 66 262 101 204 293 325 526 330 170 4
307 -47 431 -161 39 -36 138 -178 134 -193 -1 -3 2 -10 7 -16 20 -26 39 -113
46 -209 6 -88 33 -139 89 -166 41 -20 60 -20 1061 -20 l1019 1 39 22 c61 34
82 80 77 169 -2 40 -63 104 -109 115 -21 5 -436 9 -954 8 -505 0 -918 2 -919
5 -8 53 -40 152 -70 220 -87 191 -233 344 -421 440 -74 37 -181 74 -251 87
-55 10 -274 12 -314 3 -21 -5 -49 -11 -63 -13 -90 -17 -245 -90 -338 -159 -55
-41 -176 -158 -164 -158 4 0 0 -6 -9 -13 -42 -32 -148 -238 -164 -317 -2 -8
-8 -33 -14 -56 l-11 -40 -724 0 c-398 1 -727 4 -731 7 -3 4 -7 17 -9 30 -11
102 -103 296 -186 393 -76 90 -245 226 -279 226 -6 0 -11 5 -11 10 0 6 -3 9
-7 8 -5 -1 -21 5 -38 12 -16 7 -32 14 -35 14 -3 1 -10 4 -16 8 -6 4 -21 9 -35
12 -13 2 -37 9 -53 15 -16 7 -43 14 -60 17 -42 7 -286 13 -311 7z"/>
<path d="M3035 5581 c-190 -60 -308 -225 -299 -417 5 -109 50 -204 131 -280
211 -197 558 -116 665 156 30 78 30 212 -1 293 -42 108 -133 197 -244 239 -67
25 -186 30 -252 9z m197 -274 c56 -41 77 -103 56 -167 -12 -38 -71 -100 -97
-101 -9 0 -24 -2 -34 -4 -47 -9 -121 33 -147 83 -15 31 -15 104 1 133 44 83
149 109 221 56z"/>
<path d="M6307 5578 c-223 -72 -343 -304 -271 -521 121 -366 633 -378 776 -17
33 85 31 225 -5 304 -50 109 -131 186 -241 229 -71 27 -184 29 -259 5z m205
-271 c45 -33 62 -67 62 -123 -1 -150 -196 -204 -276 -76 -49 79 -10 186 79
217 47 17 97 10 135 -18z"/>
<path d="M330 4752 c-52 -9 -151 -62 -198 -106 -91 -85 -138 -206 -129 -330
13 -163 121 -304 273 -357 83 -30 154 -31 260 -6 46 11 121 58 167 103 162
161 160 424 -4 585 -47 46 -116 88 -167 101 -43 10 -165 17 -202 10z"/>
<path d="M8780 4731 c-180 -58 -293 -210 -292 -395 1 -158 94 -306 234 -369
l48 -22 0 -391 c0 -215 -3 -393 -6 -397 -4 -3 -18 1 -33 10 -82 51 -145 149
-156 242 -6 53 -2 59 28 37 40 -31 93 15 75 65 -5 16 -14 29 -18 29 -5 0 -51
27 -103 60 -51 33 -103 60 -114 60 -12 0 -49 -17 -82 -37 -34 -21 -78 -47 -98
-58 -50 -28 -81 -70 -67 -93 6 -9 22 -22 35 -29 19 -10 28 -9 47 3 13 9 25 14
27 12 1 -2 5 -28 8 -58 6 -49 12 -86 17 -100 1 -3 2 -8 1 -12 0 -4 11 -34 26
-65 14 -32 25 -61 25 -65 -1 -5 2 -8 7 -8 5 0 13 -9 16 -21 11 -34 147 -162
205 -193 82 -42 166 -67 242 -71 38 -3 73 -7 78 -10 6 -3 10 -2 10 2 0 5 12 9
28 9 134 3 307 102 400 229 78 105 114 206 121 339 1 13 5 16 14 9 24 -20 57
-21 78 -4 18 14 20 23 14 50 -4 20 -15 35 -26 38 -10 3 -19 9 -19 14 0 5 -7 9
-15 9 -8 0 -15 5 -15 10 0 6 -6 10 -12 10 -7 0 -39 18 -71 40 -31 22 -67 40
-80 40 -12 0 -71 -31 -132 -69 -98 -60 -110 -71 -113 -99 -2 -24 2 -34 22 -47
22 -15 27 -15 55 -1 16 9 32 16 35 16 12 0 -7 -88 -29 -137 -27 -59 -101 -138
-147 -156 -17 -6 -18 17 -18 392 l0 397 51 24 c59 26 150 112 178 168 100 196
40 431 -139 546 -96 61 -236 81 -340 47z"/>
<path d="M4689 4669 c-112 -49 -133 -196 -40 -277 63 -54 154 -50 218 11 36
34 53 76 49 122 -2 17 -4 38 -4 47 -1 9 -14 30 -28 48 -53 62 -124 80 -195 49z"/>
<path d="M1463 4550 c-55 -33 -66 -67 -63 -205 0 -16 2 -327 4 -690 1 -363 7
-675 11 -693 23 -95 201 -107 254 -17 18 32 19 53 18 478 -1 245 1 443 5 441
4 -3 26 -44 50 -92 24 -48 62 -106 86 -130 37 -37 47 -42 80 -40 54 4 102 55
162 172 27 54 50 96 51 95 1 -2 2 -202 3 -444 3 -478 3 -481 59 -518 68 -44
179 -20 211 47 18 38 18 -14 14 1291 -1 256 -4 277 -50 307 -16 11 -41 15 -78
12 -71 -4 -80 -6 -80 -14 0 -4 -10 -11 -22 -17 -22 -10 -51 -61 -175 -303 -27
-52 -53 -102 -58 -110 -5 -8 -10 -17 -10 -20 -2 -18 -33 -61 -38 -53 -4 6 -43
81 -87 168 -44 87 -85 164 -91 171 -6 7 -12 19 -13 26 -4 25 -39 83 -64 106
-50 47 -131 61 -179 32z"/>
<path d="M2904 4542 c-34 -23 -51 -52 -60 -102 -3 -14 -10 -43 -16 -65 -5 -22
-11 -47 -13 -55 -2 -8 -11 -46 -20 -85 -9 -38 -18 -79 -20 -90 -1 -11 -4 -21
-5 -22 -3 -3 -4 -6 -14 -58 -4 -22 -18 -85 -32 -140 -13 -55 -26 -111 -28
-125 -3 -14 -5 -25 -6 -25 -2 0 -5 -16 -14 -60 -6 -32 -9 -43 -27 -115 -6 -25
-13 -54 -15 -65 -2 -11 -20 -90 -40 -175 -41 -177 -42 -184 -50 -224 -2 -16
-6 -32 -8 -35 -2 -3 -7 -22 -10 -41 -3 -19 -8 -48 -11 -64 -11 -53 25 -102 83
-112 13 -3 27 -6 31 -6 27 -7 87 18 121 52 36 35 45 52 55 106 2 10 4 19 5 19
1 0 3 8 5 17 2 9 13 59 25 112 l22 96 36 0 c20 0 76 1 123 3 l87 2 10 -30 c10
-28 24 -88 23 -100 0 -2 5 -19 10 -37 10 -32 14 -50 24 -96 25 -127 208 -189
272 -93 20 31 24 63 11 109 -5 19 -11 42 -13 51 -2 9 -10 43 -18 76 -9 33 -18
71 -21 85 -7 33 -8 41 -51 215 -20 83 -41 170 -46 195 -12 52 -17 72 -24 100
-6 25 -11 43 -25 105 -6 28 -14 59 -16 70 -3 11 -8 34 -11 50 -3 17 -9 38 -14
48 -5 9 -8 17 -5 17 2 0 0 16 -6 36 -5 20 -11 44 -13 53 -2 9 -12 54 -24 101
-11 47 -23 96 -25 110 -13 72 -39 145 -59 170 -44 54 -123 63 -183 22z m102
-682 c3 -14 12 -52 21 -85 8 -33 17 -71 20 -85 2 -14 10 -49 18 -79 8 -30 12
-57 10 -61 -5 -8 -162 -7 -170 1 -3 3 2 37 11 75 20 85 18 77 45 202 23 106
31 111 45 32z"/>
<path d="M3928 4564 c-2 -1 -18 -5 -35 -8 -47 -9 -114 -40 -148 -70 -16 -14
-33 -26 -36 -26 -9 0 -82 -99 -96 -130 -38 -84 -40 -106 -37 -559 1 -243 5
-470 8 -506 12 -140 101 -267 234 -332 65 -33 83 -37 160 -39 67 -2 101 2 146
17 63 22 139 69 169 107 10 12 25 29 33 37 8 8 29 45 47 82 l32 68 3 196 c1
130 -2 207 -10 230 -20 59 -52 98 -103 126 -41 22 -63 27 -130 28 -68 1 -85
-2 -115 -22 -50 -32 -72 -75 -75 -142 -3 -99 24 -141 98 -150 l42 -6 1 -85 c1
-116 -18 -153 -85 -165 -43 -7 -91 9 -114 40 -16 22 -18 63 -21 469 -3 482 -2
491 50 515 31 14 56 14 87 0 33 -15 48 -43 52 -102 7 -79 22 -87 161 -87 146
0 157 8 156 115 0 165 -116 323 -278 380 -42 15 -187 29 -196 19z"/>
<path d="M5448 4554 c-148 -38 -261 -149 -299 -294 -8 -31 -11 -144 -10 -370
2 -375 8 -668 14 -690 62 -225 278 -355 496 -299 47 12 48 11 95 -25 71 -54
111 -58 164 -19 33 24 81 92 87 122 6 33 -12 73 -51 106 l-34 30 22 55 c21 54
21 65 19 515 0 253 -4 483 -7 510 -6 62 -34 155 -45 155 -5 0 -9 6 -9 13 0 20
-77 104 -126 136 -84 57 -218 81 -316 55z m146 -289 c54 -26 60 -45 62 -205 3
-173 6 -710 5 -728 -1 -8 -12 -3 -28 13 -15 14 -32 25 -38 25 -6 0 -37 -34
-69 -75 -32 -41 -62 -75 -66 -75 -27 0 -31 59 -34 500 -2 249 0 466 5 482 19
68 92 96 163 63z"/>
<path d="M6253 4558 c-41 -11 -90 -60 -101 -101 -5 -18 -7 -176 -6 -352 1
-176 3 -439 4 -585 2 -304 10 -353 69 -445 78 -121 225 -194 364 -182 75 7 94
11 103 20 4 4 13 7 21 7 14 0 103 59 131 88 37 38 81 105 86 132 1 3 5 11 10
18 19 30 21 105 19 685 -2 596 -3 609 -23 645 -30 54 -82 80 -148 76 -60 -4
-92 -23 -121 -75 -21 -36 -21 -45 -17 -620 4 -622 4 -623 -43 -649 -27 -14
-74 -13 -94 3 -39 30 -43 56 -45 343 -2 154 -4 416 -6 584 -3 316 -5 332 -46
368 -47 40 -103 54 -157 40z"/>
<path d="M7313 4535 c-63 -23 -122 -87 -137 -149 -4 -16 -7 -137 -6 -270 4
-667 9 -1028 15 -1058 15 -68 76 -134 150 -162 11 -4 126 -7 255 -6 258 1 282
6 324 63 28 37 26 124 -3 165 -37 53 -62 59 -266 58 -178 -1 -185 0 -186 19
-4 111 -4 397 1 403 3 4 67 8 143 8 152 2 177 10 205 68 21 42 17 121 -8 161
-27 44 -68 57 -172 55 -46 -1 -104 -1 -130 -1 l-47 1 2 187 2 187 155 1 c99 0
166 5 185 13 89 37 103 176 25 247 -20 19 -38 20 -244 22 -177 2 -229 0 -263
-12z"/>
<path d="M4682 4253 c-60 -29 -94 -107 -82 -191 4 -24 3 -45 -2 -48 -5 -3 -6
-9 -3 -14 3 -5 7 -232 9 -504 4 -465 5 -498 23 -528 29 -50 77 -78 135 -78 76
0 134 40 155 105 9 29 9 612 0 622 -3 2 -1 17 3 33 4 16 6 31 3 34 -3 2 -6
107 -7 233 -1 163 -6 238 -16 264 -28 76 -137 112 -218 72z"/>
<path d="M364 3674 c-49 -16 -101 -75 -108 -122 -7 -39 -1 -217 9 -317 6 -63
40 -272 51 -315 3 -14 9 -41 14 -60 27 -117 95 -328 111 -345 5 -5 9 -19 9
-32 0 -13 5 -23 10 -23 6 0 10 -7 10 -15 0 -17 121 -255 161 -318 30 -47 165
-232 199 -272 41 -48 225 -228 255 -250 16 -11 36 -27 44 -36 9 -8 32 -26 51
-39 19 -13 37 -27 40 -30 10 -12 169 -110 179 -110 5 0 11 -4 13 -8 3 -8 232
-122 244 -122 3 0 20 -6 37 -14 41 -19 200 -74 246 -86 20 -5 72 -18 115 -29
44 -12 93 -23 110 -26 17 -3 54 -9 81 -15 84 -18 192 -33 330 -47 97 -10 4259
-14 4318 -4 27 5 47 4 47 -1 0 -5 5 -6 11 -2 6 4 23 8 38 9 121 11 168 16 181
20 8 2 37 7 63 10 27 3 67 9 90 15 23 5 56 11 72 14 17 3 66 15 110 26 44 12
90 23 102 25 12 1 27 6 33 10 5 3 22 9 37 11 15 3 33 10 40 16 7 6 13 8 13 5
0 -3 28 6 63 20 34 13 67 26 72 27 43 11 296 133 345 167 14 9 52 34 85 55 33
21 65 42 70 46 181 138 309 261 425 408 41 53 81 104 87 115 7 11 37 58 66
105 74 117 80 139 62 216 -7 32 -59 80 -100 94 -80 26 -152 -11 -206 -107 -30
-54 -101 -162 -124 -190 -5 -7 -14 -18 -20 -25 -83 -107 -218 -246 -267 -276
-16 -9 -28 -20 -28 -24 0 -9 -169 -127 -235 -164 -27 -15 -63 -35 -80 -44 -52
-29 -271 -120 -288 -120 -9 0 -17 -5 -17 -10 0 -6 -3 -9 -7 -8 -10 2 -75 -13
-88 -20 -10 -7 -22 -9 -65 -17 -14 -2 -25 -4 -25 -5 0 -1 -7 -3 -15 -5 -58
-15 -100 -25 -130 -30 -19 -3 -42 -8 -50 -10 -8 -2 -39 -7 -69 -10 -30 -4 -63
-9 -75 -11 -25 -5 -80 -11 -191 -20 -104 -9 -4141 -10 -4265 -1 -132 9 -261
26 -405 53 -79 14 -299 73 -350 94 -30 12 -59 23 -70 26 -5 1 -32 13 -60 25
-27 13 -52 24 -55 24 -7 1 -119 59 -166 86 -55 31 -145 89 -176 113 -14 11
-39 31 -55 43 -113 86 -240 218 -339 354 -91 123 -254 427 -254 472 0 7 -4 17
-8 22 -9 11 -39 103 -71 220 -19 71 -27 105 -36 160 -3 17 -8 41 -10 55 -11
54 -13 67 -20 130 -12 104 -14 130 -15 220 -1 47 -6 102 -12 122 -23 79 -117
128 -194 102z"/>
<path d="M3048 2551 c-344 -87 -426 -541 -134 -740 92 -63 253 -89 348 -55 21
7 38 10 38 6 0 -4 4 -2 8 4 4 6 22 19 40 28 65 34 124 93 159 161 87 167 59
358 -71 487 -105 104 -248 144 -388 109z"/>
<path d="M4197 2564 c-1 -2 -15 -5 -30 -8 -164 -29 -299 -162 -332 -326 -6
-28 -7 -127 -2 -150 37 -168 145 -283 311 -329 36 -10 68 -16 70 -13 3 2 29 5
58 6 197 8 373 189 380 391 1 6 -2 37 -5 69 -18 167 -164 323 -328 351 -45 8
-118 13 -122 9z"/>
<path d="M5297 2564 c-1 -1 -17 -4 -34 -7 -302 -47 -443 -417 -253 -661 71
-91 189 -151 305 -157 43 -2 122 10 153 23 15 6 30 12 33 12 4 1 29 16 57 34
83 54 140 131 174 238 13 41 15 148 3 194 -3 14 -7 30 -8 35 -8 37 -63 127
-101 165 -45 46 -127 97 -169 104 -12 3 -22 5 -22 6 0 6 -132 20 -138 14z"/>
<path d="M6370 2559 c-290 -45 -444 -360 -300 -615 59 -103 177 -183 296 -200
44 -7 41 -7 109 -1 87 8 187 59 256 130 35 36 92 147 99 192 6 43 5 144 -2
182 -11 59 -61 145 -116 199 -29 30 -60 54 -67 54 -7 0 -18 6 -24 14 -13 16
-115 46 -169 50 -20 1 -57 -1 -82 -5z"/>
</g>
</svg>
