<svg xmlns="http://www.w3.org/2000/svg" width="30.217" height="41.386" viewBox="0 0 30.217 41.386">
    <g>
        <path d="M708.992 133.241l-4.121-2.634a1.139 1.139 0 0 0-1.23 0l-4.121 2.634a1.2 1.2 0 0 0-.366 1.628 1.145 1.145 0 0 0 1.6.374l.791-.505c0 .048-.007.1-.007.145a7.282 7.282 0 0 1-.39 2.364 7.127 7.127 0 0 1-3.852 4.223v-14.309h6.019a2.788 2.788 0 0 0 0-5.575h-2.387a9.074 9.074 0 0 0 2.39-6.151 8.862 8.862 0 1 0-17.721 0 9.075 9.075 0 0 0 2.389 6.151H685.6a2.788 2.788 0 0 0 0 5.575h6.088v14.309a7.125 7.125 0 0 1-3.86-4.246 7.293 7.293 0 0 1-.382-2.342 2.952 2.952 0 0 0-.017-.312l.681.436a1.146 1.146 0 0 0 1.6-.374 1.2 1.2 0 0 0-.366-1.628l-4.122-2.634a1.138 1.138 0 0 0-1.229 0l-4.132 2.63a1.2 1.2 0 0 0-.366 1.628 1.151 1.151 0 0 0 .982.554 1.137 1.137 0 0 0 .614-.181l.768-.491a2.827 2.827 0 0 0-.026.367 13.1 13.1 0 0 0 .688 4.205 12.579 12.579 0 0 0 23.917.04 13.1 13.1 0 0 0 .7-4.245v-.038l.623.4a1.139 1.139 0 0 0 .614.181 1.152 1.152 0 0 0 .982-.554 1.2 1.2 0 0 0-.365-1.625zm-14.54-21.123a3.318 3.318 0 1 1-3.253 3.317 3.289 3.289 0 0 1 3.253-3.317z" transform="translate(-679.318 -106.4)"/>
    </g>
</svg>
