<svg xmlns="http://www.w3.org/2000/svg" width="2020.5" height="357.021" viewBox="0 0 2020.5 357.021">
    <defs>
        <style>
            .cls-1{fill:none;stroke:#fff;stroke-linecap:round;stroke-linejoin:round;stroke-width:5px;stroke-dasharray:10}
        </style>
    </defs>
    <g id="Groupe_276" transform="translate(-911.581 -546.588)">
        <path id="Tracé_603" d="M890.248 682.28c7.666 20.846 27.227 34.768 46.693 45.464 115.355 63.378 266.9 53.891 373.455-23.378 25.726-18.653 51.133-49.824 38.706-79.071-9.58-22.546-40.625-31.088-62.38-19.828s-32.946 37.866-30.033 62.188c4.046 33.786 31.841 61.391 63.836 72.981s67.406 9.5 100.759 2.757 65.7-17.933 99.122-24.333a355.7 355.7 0 0 1 195.656 18.154" class="cls-1" transform="translate(14.243 84.084)"/>
        <path id="Tracé_604" d="M1421.829 767.523c136.944 27.992 278.409-73.938 413.224-37.031 24.505 6.709 47.6 17.829 71.945 25.1a241.841 241.841 0 0 0 172.93-13.992c48.241-23.409 86.985-62.086 128.607-95.891s89.987-64.239 143.587-65.766" class="cls-1" transform="rotate(10.02 1887.374 3934.7)"/>
    </g>
</svg>
