<svg xmlns="http://www.w3.org/2000/svg" width="6.927" height="8.374" viewBox="0 0 6.927 8.374">
    <defs>
        <clipPath id="8shh592p4a">
            <path fill="none" d="M0 0H6.927V8.374H0z"/>
        </clipPath>
    </defs>
    <g clip-path="url(#8shh592p4a)">
        <path d="M6.892 4.573a5.5 5.5 0 0 0-.092-.718 4.325 4.325 0 0 0-.549-1.36 4.137 4.137 0 0 0-1.525-1.439C4.68 1.03 4.631 1 4.583.98A7.32 7.32 0 0 0 2.86.3 9.5 9.5 0 0 0 .831 0a.4.4 0 0 0-.387.271 9.46 9.46 0 0 0-.407 2.011 5.575 5.575 0 0 0 .778 3.749A5.624 5.624 0 0 0 4.07 8.056a9.591 9.591 0 0 0 2.03.318h.011a.4.4 0 0 0 .377-.265v-.007A9.652 9.652 0 0 0 6.9 6.079a8.556 8.556 0 0 0 0-1.506m-1.674-.851a.4.4 0 0 0-.791-.139l-.181 1.026-1.475-2.115a.4.4 0 1 0-.659.459l1.47 2.108-1.012-.178a.4.4 0 1 0-.14.791l1.8.317 1.041 1.494a5.747 5.747 0 0 1-3.806-1.914C.381 4.011.91 1.588 1.118.821c.791.066 3.247.4 4.341 1.958a5.737 5.737 0 0 1 .479 4.247L4.9 5.543z"/>
    </g>
</svg>
