<svg xmlns="http://www.w3.org/2000/svg" width="33.83" height="29.794" viewBox="0 0 33.83 29.794">
    <path fill="#fff" stroke="#fff" stroke-width="0.5px" d="M32.359 34.906H23.5v-.976A2.933 2.933 0 0 0 20.571 31h-7.812a2.933 2.933 0 0 0-2.929 2.929v.976H.976a.979.979 0 0 0-.976.977v21.482a2.933 2.933 0 0 0 2.929 2.929H30.4a2.933 2.933 0 0 0 2.929-2.929V35.9a.948.948 0 0 0-.97-.994zm-20.577-.977a.978.978 0 0 1 .976-.976h7.812a.978.978 0 0 1 .976.976v.976h-9.763zM31 36.859l-3.032 9.1a.975.975 0 0 1-.926.668h-5.495v-.976a.976.976 0 0 0-.976-.976h-7.812a.976.976 0 0 0-.976.976v.976H6.29a.975.975 0 0 1-.926-.668l-3.032-9.1zm-11.4 9.765v1.953h-5.864v-1.954zm11.777 10.74a.978.978 0 0 1-.976.976H2.929a.978.978 0 0 1-.976-.976V41.9l1.558 4.674a2.925 2.925 0 0 0 2.779 2h5.493v.976a.976.976 0 0 0 .976.976h7.812a.976.976 0 0 0 .976-.976v-.976h5.493a2.925 2.925 0 0 0 2.779-2l1.558-4.674z" transform="translate(.25 -30.75)"/>
</svg>
