<svg xmlns="http://www.w3.org/2000/svg" width="31.439" height="24.201" viewBox="0 0 31.439 24.201">
    <defs>
        <style>
            .cls-1{fill:none;stroke:#fff;stroke-linecap:round;stroke-miterlimit:10;stroke-width:3px}
        </style>
    </defs>
    <g id="Groupe_110" transform="translate(1.5 1.5)">
        <g id="Groupe_32">
            <path id="Tracé_82" d="M-294 97.311c4.74 0 4.74 4.8 9.479 4.8s4.74-4.8 9.48-4.8 4.74 4.8 9.48 4.8" class="cls-1" transform="translate(294 -97.311)"/>
        </g>
        <g id="Groupe_33" transform="translate(0 8.201)">
            <path id="Tracé_82-2" d="M-294 97.311c4.74 0 4.74 4.8 9.479 4.8s4.74-4.8 9.48-4.8 4.74 4.8 9.48 4.8" class="cls-1" transform="translate(294 -97.311)"/>
        </g>
        <g id="Groupe_34" transform="translate(0 16.403)">
            <path id="Tracé_82-3" d="M-294 97.311c4.74 0 4.74 4.8 9.479 4.8s4.74-4.8 9.48-4.8 4.74 4.8 9.48 4.8" class="cls-1" transform="translate(294 -97.311)"/>
        </g>
    </g>
</svg>
