<svg xmlns="http://www.w3.org/2000/svg" width="84.12" height="39.971" viewBox="0 0 84.12 39.971">
    <defs>
        <style>
            .cls-1{fill:#1d1d1b;stroke:#1d1d1b;stroke-width:.5px}.cls-2{stroke:#000;stroke-width:1.5px}
        </style>
    </defs>
    <g id="Groupe_210" transform="translate(.25 .262)">
        <path id="Tracé_472" d="M-620.766-195.417h-1.786l1.024-5.663a.848.848 0 0 0-.683-.985.849.849 0 0 0-.985.683l-1.079 5.965h-11.41a.847.847 0 0 0-.847.847v31.052a.847.847 0 0 0 .847.847h14.919a.847.847 0 0 0 .847-.847v-31.052a.847.847 0 0 0-.847-.847zm-.847 1.695v5a3.723 3.723 0 0 0-1.57.9 2.21 2.21 0 0 1-.84.536l1.164-6.438zm-2.968 0l-1.089 6.022-.14-.119a3.413 3.413 0 0 0-2.417-1 3.41 3.41 0 0 0-2.416 1.005 1.745 1.745 0 0 1-1.312.6 1.747 1.747 0 0 1-1.312-.6 3.727 3.727 0 0 0-1.569-.9v-5zm-10.256 29.357V-186.9a4.338 4.338 0 0 1 .465.366 3.41 3.41 0 0 0 2.417 1.005 3.411 3.411 0 0 0 2.416-1.005 1.744 1.744 0 0 1 1.312-.6 1.748 1.748 0 0 1 1.313.6 4.708 4.708 0 0 0 .914.655l-2.053 11.351a.848.848 0 0 0 .683.985.846.846 0 0 0 .152.014.848.848 0 0 0 .833-.7l2.046-11.311a3.45 3.45 0 0 0 2.26-1 4.322 4.322 0 0 1 .466-.366v22.534z" class="cls-1" transform="translate(670.535 202.078)"/>
        <path id="Tracé_474" d="M-531.136-108.049h-5.74a6.752 6.752 0 0 0 .854-1.332 4.753 4.753 0 0 0 4.581-4.742 4.756 4.756 0 0 0-3.9-4.671v-1.074a.847.847 0 0 0-.847-.847h-15.52a.847.847 0 0 0-.847.847v7.555a6.733 6.733 0 0 0 1.53 4.265h-5.739a.847.847 0 0 0-.847.847.847.847 0 0 0 .847.847h3.943a2.968 2.968 0 0 0 2.838 2.116h12.071a2.944 2.944 0 0 0 2.1-.868 2.948 2.948 0 0 0 .745-1.248h3.941a.847.847 0 0 0 .847-.847.847.847 0 0 0-.857-.848zm-2-6.075a3.06 3.06 0 0 1-2.313 2.961 6.693 6.693 0 0 0 .1-1.152v-4.744a3.061 3.061 0 0 1 2.213 2.935zm-17.73 1.809v-6.708h13.826v6.708a5.04 5.04 0 0 1-2.361 4.265h-9.1a5.039 5.039 0 0 1-2.365-4.264zm13.846 6.009a1.261 1.261 0 0 1-.9.371h-12.071a1.265 1.265 0 0 1-.943-.421h13.958c-.013.019-.024.035-.044.051z" class="cls-1" transform="translate(613.909 143.697)"/>
        <path id="Tracé_475" d="M-729.655-134a3.563 3.563 0 0 0 1.064-2.541v-.73a3.572 3.572 0 0 0-1.725-3.053 8.434 8.434 0 0 0-8.417-8.1h-8.04a8.434 8.434 0 0 0-8.417 8.1 3.572 3.572 0 0 0-1.725 3.053v.73a3.562 3.562 0 0 0 1.067 2.541 2.807 2.807 0 0 0-.213.189 2.888 2.888 0 0 0-.855 2.055 2.912 2.912 0 0 0 1.716 2.656v1.3a3.64 3.64 0 0 0 3.636 3.636h17.617a3.641 3.641 0 0 0 3.638-3.636v-1.3a2.914 2.914 0 0 0 .862-.6 2.888 2.888 0 0 0 .855-2.055 2.9 2.9 0 0 0-1.063-2.245zm-24.042-2.288a4.225 4.225 0 0 0 3.143 1.43 4.228 4.228 0 0 0 3.143-1.43 2.594 2.594 0 0 1 1.984-.972 2.6 2.6 0 0 1 1.985.972 4.227 4.227 0 0 0 3.143 1.43 4.227 4.227 0 0 0 3.143-1.43 2.6 2.6 0 0 1 1.985-.972 2.6 2.6 0 0 1 1.985.972 4.7 4.7 0 0 0 2.08 1.3 1.868 1.868 0 0 1-1.057.327h-21.177a1.881 1.881 0 0 1-1.879-1.879v-.676a2.891 2.891 0 0 1 1.519.93zm1.025 3.321h2.9l3.173 3.173-1.451 1.451zm5.3 0h9.245l-2.7 2.7-1.924 1.925zm17.089-3.6a2.708 2.708 0 0 1-1.743-.958 4.226 4.226 0 0 0-3.143-1.43 4.226 4.226 0 0 0-3.143 1.43 2.6 2.6 0 0 1-1.985.972 2.6 2.6 0 0 1-1.985-.972 4.225 4.225 0 0 0-3.143-1.43 4.225 4.225 0 0 0-3.143 1.43 2.6 2.6 0 0 1-1.984.972 2.592 2.592 0 0 1-1.984-.972 4.859 4.859 0 0 0-1.922-1.253 1.866 1.866 0 0 1 1.119-.373h21.177a1.881 1.881 0 0 1 1.879 1.88zm-23.165-4.279a6.742 6.742 0 0 1 5.6-5.79l-2.31 3.679a.848.848 0 0 0 .267 1.168.842.842 0 0 0 .45.13.848.848 0 0 0 .719-.4l2.934-4.673h2.764l-2.368 3.772a.847.847 0 0 0 .267 1.168.843.843 0 0 0 .45.13.848.848 0 0 0 .719-.4l2.934-4.673h2.3c.153 0 .3.011.453.021l-2.355 3.751a.848.848 0 0 0 .267 1.168.842.842 0 0 0 .45.13.848.848 0 0 0 .719-.4l2.692-4.288a6.745 6.745 0 0 1 4.451 5.5h-21.405zm-1.412 8.235c.025-.025.051-.049.078-.072l2.143 2.144h-1.365a1.217 1.217 0 0 1-1.215-1.215 1.2 1.2 0 0 1 .357-.855zM-732-127.8a1.944 1.944 0 0 1-1.943 1.941h-17.617a1.943 1.943 0 0 1-1.94-1.941v-1.017h2.576l2.278 2.278a.844.844 0 0 0 .6.248.845.845 0 0 0 .6-.248l2.051-2.05 2.049 2.048a.847.847 0 0 0 .6.248.847.847 0 0 0 .6-.248l2.275-2.275H-732zm1.358-3.091a1.206 1.206 0 0 1-.857.358h-6.661l2.428-2.428h4.233a1.216 1.216 0 0 1 1.215 1.213 1.206 1.206 0 0 1-.359.853z" class="cls-1" transform="translate(756.916 163.576)"/>
        <g id="Groupe_339" transform="translate(64.942 13.786)">
            <path id="Tracé_557" d="M121.439 470.587a1.495 1.495 0 0 1 0-2.451l.1-.1a.3.3 0 1 0-.429-.427l-.1.1a2.084 2.084 0 0 0 0 3.312 1.494 1.494 0 0 1 0 2.451c-.081.08-.162.161-.24.244a.3.3 0 1 0 .445.411c.071-.077.146-.151.221-.224a2.083 2.083 0 0 0 0-3.312z" class="cls-2" transform="translate(-120.195 -467.517)"/>
            <path id="Tracé_558" d="M140.614 470.587a1.494 1.494 0 0 1 0-2.451l.1-.1a.3.3 0 1 0-.429-.427l-.1.1a2.083 2.083 0 0 0 0 3.312 1.494 1.494 0 0 1 0 2.451c-.081.08-.162.16-.24.244a.3.3 0 1 0 .444.411c.071-.077.146-.151.22-.224a2.083 2.083 0 0 0 0-3.312z" class="cls-2" transform="translate(-135.592 -467.517)"/>
            <path id="Tracé_559" d="M159.788 470.587a1.494 1.494 0 0 1 0-2.451l.1-.1a.3.3 0 1 0-.429-.427l-.1.1a2.084 2.084 0 0 0 0 3.312 1.494 1.494 0 0 1 0 2.451c-.081.08-.162.161-.24.244a.3.3 0 1 0 .444.411c.071-.077.146-.151.221-.224a2.083 2.083 0 0 0 0-3.312z" class="cls-2" transform="translate(-150.99 -467.517)"/>
        </g>
    </g>
</svg>
