<svg xmlns="http://www.w3.org/2000/svg" width="37.488" height="36.639" viewBox="0 0 37.488 36.639">
    <defs>
        <style>
            .cls-2{stroke:#000}
        </style>
    </defs>
    <g id="Groupe_527" transform="translate(-510.512 -1409.941)">
        <path id="Tracé_471" fill="#1d1d1b" d="M339.283-106.271h-7.874a9.243 9.243 0 0 0 1.171-1.827 6.52 6.52 0 0 0 6.285-6.506 6.525 6.525 0 0 0-5.356-6.408v-1.474a1.163 1.163 0 0 0-1.162-1.162h-21.29a1.162 1.162 0 0 0-1.162 1.162v10.364a9.237 9.237 0 0 0 2.1 5.85h-7.873a1.162 1.162 0 0 0-1.162 1.162 1.162 1.162 0 0 0 1.162 1.162h5.409a4.071 4.071 0 0 0 3.894 2.9h16.555a4.036 4.036 0 0 0 2.875-1.19 4.041 4.041 0 0 0 1.022-1.711h5.406a1.162 1.162 0 0 0 1.162-1.162 1.162 1.162 0 0 0-1.162-1.16zm-2.743-8.329a4.2 4.2 0 0 1-3.173 4.062 9.194 9.194 0 0 0 .142-1.581v-6.508a4.2 4.2 0 0 1 3.031 4.027zm-24.322 2.482v-9.2h18.966v9.2a6.913 6.913 0 0 1-3.239 5.85h-12.488a6.912 6.912 0 0 1-3.239-5.855zm18.993 8.245a1.728 1.728 0 0 1-1.231.509h-16.558a1.738 1.738 0 0 1-1.293-.577h19.147c-.021.018-.043.041-.065.063z" transform="translate(207.555 1547.625)"/>
        <g id="Groupe_258" transform="translate(521.892 1410.5)">
            <path id="Tracé_557" d="M122.136 472.305a2.331 2.331 0 0 1 0-3.823l.162-.161a.472.472 0 0 0-.669-.665l-.156.155a3.25 3.25 0 0 0 0 5.166 2.33 2.33 0 0 1 0 3.823c-.127.125-.253.25-.374.381a.472.472 0 0 0 .693.64c.111-.12.228-.235.344-.35a3.249 3.249 0 0 0 0-5.165z" class="cls-2" transform="translate(-120.195 -467.517)"/>
            <path id="Tracé_558" d="M141.31 472.305a2.331 2.331 0 0 1 0-3.823l.162-.161a.472.472 0 0 0-.669-.665l-.156.155a3.249 3.249 0 0 0 0 5.166 2.331 2.331 0 0 1 0 3.823c-.126.125-.253.25-.374.381a.472.472 0 1 0 .693.64c.111-.12.227-.235.344-.35a3.249 3.249 0 0 0 0-5.165z" class="cls-2" transform="translate(-133.479 -467.517)"/>
            <path id="Tracé_559" d="M160.484 472.305a2.331 2.331 0 0 1 0-3.823l.162-.161a.472.472 0 0 0-.669-.665l-.156.155a3.25 3.25 0 0 0 0 5.166 2.33 2.33 0 0 1 0 3.823c-.126.125-.253.251-.374.381a.472.472 0 1 0 .693.64c.111-.12.228-.235.344-.35a3.249 3.249 0 0 0 0-5.165z" class="cls-2" transform="translate(-146.762 -467.517)"/>
        </g>
    </g>
</svg>
