<svg xmlns="http://www.w3.org/2000/svg" width="217.736" height="171.091" viewBox="0 0 217.736 171.091">
    <defs>
        <style>
            .cls-1,.cls-2{fill:#e6534e;stroke:#e6534e}.cls-2{fill:#fff}
        </style>
    </defs>
    <g id="Groupe_77" transform="translate(-920.44 -284.79)">
        <g id="Groupe_20" transform="translate(920.94 285.29)">
            <path id="Tracé_119" d="M6.363 0A6.363 6.363 0 1 1 0 6.363 6.363 6.363 0 0 1 6.363 0z" class="cls-1" transform="translate(2.587 88.732)"/>
            <circle id="Ellipse_2" cx="6.363" cy="6.363" r="6.363" class="cls-1" transform="translate(194.431 88.732)"/>
            <path id="Tracé_1" d="M207.373 124.89a3.293 3.293 0 0 0-2.4-.9l-11.06.039-.2-21.983a3.165 3.165 0 0 0-3.3-3.283h-.034a3.167 3.167 0 0 0-3.279 3.337l.212 23.411a4.96 4.96 0 0 0 5.174 5.146h.052l12.494-.047a3.382 3.382 0 0 0 2.344-5.72z" class="cls-2" transform="translate(-124.975 -82.237)"/>
            <path id="Tracé_2" d="M303.5 113.214l-.5-.495c-3.734-3.674-4.051-4.907-4.059-5.94a1.719 1.719 0 0 1 1.708-1.737 1.616 1.616 0 0 1 1.679 1.543l.007.775a1.64 1.64 0 0 0 1.659 1.647h.014l3.273-.027a1.562 1.562 0 0 0 1.59-1.673l-.006-.721a7.941 7.941 0 0 0-2.507-5.739 8.339 8.339 0 0 0-5.816-2.287 8.292 8.292 0 0 0-8.191 8.326c.038 4.766 3.23 7.831 5.553 10.061l.5.495c3.734 3.675 4.051 4.907 4.059 5.941a1.718 1.718 0 0 1-1.709 1.736 1.751 1.751 0 0 1-1.188-.466 1.5 1.5 0 0 1-.491-1.076l-.006-.777a1.643 1.643 0 0 0-1.659-1.646h-.01l-3.216.027a1.642 1.642 0 0 0-1.647 1.674l.006.776a8.185 8.185 0 0 0 8.254 8.025h.07a8.291 8.291 0 0 0 8.191-8.325c-.041-4.821-3.233-7.886-5.558-10.117z" class="cls-2" transform="translate(-154.191 -82.18)"/>
            <path id="Tracé_3" d="M280.078 101.992a3.288 3.288 0 1 0-6.576.053l.22 27.066a2.958 2.958 0 0 1-5.915.048l-.22-27.065a3.128 3.128 0 0 0-3.314-3.262 3.113 3.113 0 0 0-3.262 3.315l.22 27.065a9.56 9.56 0 0 0 9.534 9.457h.078a9.577 9.577 0 0 0 9.457-9.612z" class="cls-2" transform="translate(-145.485 -82.228)"/>
            <path id="Tracé_4" d="M248.889 124.831a10.284 10.284 0 0 0-3.069-7.283 10.1 10.1 0 0 0 2.331-6.591l-.017-2.082a10.257 10.257 0 0 0-10.23-10.145l-4.245.034a4.564 4.564 0 0 0-3.284 1.259 4.423 4.423 0 0 0-1.218 3.245l.248 30.535a4.559 4.559 0 0 0 4.8 4.775l4.563-.037a10.226 10.226 0 0 0 10.145-10.311zm-10.9-4.285a4.012 4.012 0 0 1 3.952 3.919l.029 3.649a4 4 0 0 1-3.919 3.983l-2.984.024-.093-11.551zm2.53-6.958a3.626 3.626 0 0 1-2.561 1.1l-2.125.017-.076-9.385 2.153-.017a3.708 3.708 0 0 1 3.653 3.621l.017 2.082a3.622 3.622 0 0 1-1.065 2.583z" class="cls-2" transform="translate(-136.647 -82.228)"/>
            <g id="Groupe_2" transform="translate(5.864 55.47)">
                <g id="Groupe_1">
                    <path id="Tracé_5" d="M231.118 176.874h-39.411a3.546 3.546 0 0 1-3.556-3.535 13.677 13.677 0 1 0-27.353 0 3.547 3.547 0 0 1-3.557 3.535h-44.387a3.535 3.535 0 1 1 0-7.07h41.127a20.782 20.782 0 0 1 40.984 0h32.895a20.784 20.784 0 0 1 40.983-.027h41.3a3.535 3.535 0 1 1 0 7.07h-44.558a3.546 3.546 0 0 1-3.557-3.535 13.677 13.677 0 1 0-27.353.027 3.547 3.547 0 0 1-3.557 3.535z" class="cls-2" transform="translate(-109.297 -152.482)"/>
                </g>
            </g>
            <g id="Groupe_3" transform="translate(5.864)">
                <path id="Tracé_6" d="M310.139 134.088h-39.062a3.546 3.546 0 0 1-3.556-3.535V96.531a13.774 13.774 0 0 0-13.8-13.716h-84.508a13.774 13.774 0 0 0-13.8 13.716v4l-.04 19.509v10.508a3.547 3.547 0 0 1-3.557 3.535h-38.96a3.535 3.535 0 1 1 0-7.07h35.4v-6.98l.041-23.507a20.874 20.874 0 0 1 20.914-20.786h84.509a20.874 20.874 0 0 1 20.914 20.786v30.487h35.5a3.535 3.535 0 1 1 0 7.07z" class="cls-2" transform="translate(-109.297 -75.745)"/>
            </g>
            <g id="Groupe_4" transform="translate(5.676 110.23)">
                <path id="Tracé_7" d="M253.035 287.761h-83.407c-19.766 0-35.153-5.6-45.73-16.631-15.8-16.481-14.886-38.921-14.84-39.868a3.558 3.558 0 0 1 7.107.34c-.012.3-.731 20.5 12.936 34.7 9.182 9.545 22.816 14.384 40.527 14.384h83.407c22.7 0 38.543-7.849 47.084-23.327a3.57 3.57 0 0 1 4.83-1.4 3.523 3.523 0 0 1 1.409 4.8c-12.313 22.318-35.793 27.002-53.323 27.002z" class="cls-2" transform="translate(-109.034 -227.9)"/>
            </g>
            <g id="Groupe_5" transform="translate(61.692 67.049)">
                <path id="Tracé_8" d="M195.817 187.142a9.309 9.309 0 1 1 9.309-9.309 9.319 9.319 0 0 1-9.309 9.309zm0-12.727a3.418 3.418 0 1 0 3.417 3.418 3.421 3.421 0 0 0-3.417-3.418z" class="cls-2" transform="translate(-186.509 -168.524)"/>
            </g>
            <g id="Groupe_6" transform="translate(135.722 67.049)">
                <path id="Tracé_9" d="M298.274 187.142a9.309 9.309 0 1 1 9.309-9.309 9.32 9.32 0 0 1-9.309 9.309zm0-12.727a3.418 3.418 0 1 0 3.417 3.418 3.422 3.422 0 0 0-3.417-3.418z" class="cls-2" transform="translate(-288.965 -168.524)"/>
            </g>
            <g id="Groupe_7" transform="translate(61.692 135.487)">
                <circle id="Ellipse_3" cx="6.363" cy="6.363" r="6.363" class="cls-1" transform="translate(2.945 2.945)"/>
                <path id="Tracé_10" d="M195.817 281.7a9.309 9.309 0 1 1 9.309-9.309 9.319 9.319 0 0 1-9.309 9.309zm0-12.726a3.417 3.417 0 1 0 3.417 3.417 3.421 3.421 0 0 0-3.417-3.419z" class="cls-2" transform="translate(-186.509 -263.08)"/>
            </g>
            <path id="Tracé_11" d="M110.437 213.314a9.309 9.309 0 1 1 9.309-9.314 9.319 9.319 0 0 1-9.309 9.314zm0-12.727a3.417 3.417 0 1 0 3.418 3.413 3.421 3.421 0 0 0-3.418-3.412z" class="cls-2" transform="translate(-101.129 -108.733)"/>
            <g id="Groupe_8" transform="translate(135.722 135.487)">
                <circle id="Ellipse_4" cx="6.363" cy="6.363" r="6.363" class="cls-1" transform="translate(2.946 2.945)"/>
                <path id="Tracé_12" d="M298.274 281.7a9.309 9.309 0 1 1 9.309-9.309 9.319 9.319 0 0 1-9.309 9.309zm0-12.726a3.417 3.417 0 1 0 3.417 3.417 3.421 3.421 0 0 0-3.417-3.419z" class="cls-2" transform="translate(-288.965 -263.08)"/>
            </g>
            <g id="Groupe_9" transform="translate(111.045 135.487)">
                <circle id="Ellipse_5" cx="6.363" cy="6.363" r="6.363" class="cls-1" transform="translate(2.946 2.945)"/>
                <path id="Tracé_13" d="M264.122 281.7a9.309 9.309 0 1 1 9.308-9.309 9.319 9.319 0 0 1-9.308 9.309zm0-12.726a3.417 3.417 0 1 0 3.417 3.417 3.421 3.421 0 0 0-3.417-3.419z" class="cls-2" transform="translate(-254.813 -263.08)"/>
            </g>
            <g id="Groupe_10" transform="translate(86.368 135.487)">
                <circle id="Ellipse_6" cx="6.363" cy="6.363" r="6.363" class="cls-1" transform="translate(2.946 2.945)"/>
                <path id="Tracé_14" d="M229.97 281.7a9.309 9.309 0 1 1 9.308-9.309 9.319 9.319 0 0 1-9.308 9.309zm0-12.726a3.417 3.417 0 1 0 3.417 3.417 3.421 3.421 0 0 0-3.417-3.419z" class="cls-2" transform="translate(-220.661 -263.08)"/>
            </g>
            <path id="Tracé_15" d="M210.6 116.408a2.419 2.419 0 0 0-1.7-.648l-3.513.016-.033-4.052 2.417-.007a2.1 2.1 0 0 0 1.512-.628 2.174 2.174 0 0 0 .587-1.541v-.458a2.066 2.066 0 0 0-2.128-2.1l-2.422.008-.028-3.384 3.511-.016a2.278 2.278 0 0 0 2.343-2.417 2.376 2.376 0 0 0-.676-1.694 2.4 2.4 0 0 0-1.7-.648l-4.713.022a3.339 3.339 0 0 0-3.462 3.519l.119 14.7a3.337 3.337 0 0 0 3.481 3.463h.034l4.712-.022a2.362 2.362 0 0 0 1.7-.686 2.4 2.4 0 0 0 .643-1.732 2.374 2.374 0 0 0-.684-1.695z" class="cls-2" transform="translate(-128.74 -82.259)"/>
            <path id="Tracé_16" d="M388.087 222.488l-4.33-2.715a1.217 1.217 0 0 0-1.292 0l-4.33 2.715a1.216 1.216 0 1 0 1.292 2.061l.831-.52c0 .05-.008.1-.008.149a7.375 7.375 0 0 1-4.456 6.786v-18.01a9.305 9.305 0 1 0-5.892.027v17.985a7.38 7.38 0 0 1-4.456-6.788 2.946 2.946 0 0 0-.019-.32l.716.448a1.216 1.216 0 0 0 1.292-2.061l-4.33-2.715a1.217 1.217 0 0 0-1.292 0l-4.33 2.715a1.216 1.216 0 1 0 1.292 2.061l.806-.505a2.993 2.993 0 0 0-.027.378 13.294 13.294 0 1 0 26.587 0v-.039l.656.411a1.216 1.216 0 1 0 1.292-2.061zm-15.275-21.761a3.417 3.417 0 1 1-3.418 3.418 3.422 3.422 0 0 1 3.418-3.418z" class="cls-2" transform="translate(-172.011 -108.665)"/>
            <g id="Groupe_19" transform="translate(31.589 87.615)">
                <g id="Groupe_11" transform="translate(49.051 2.673)">
                    <path id="Tracé_17" d="M230.83 219.59a5.038 5.038 0 0 0-3.723-1.405l-1.01.013a3.425 3.425 0 0 0-3.582 3.576l.009 1.152a2.368 2.368 0 0 0 2.476 2.439h.676l.029 3.618a2.225 2.225 0 0 1-2.366 2.155 3.1 3.1 0 0 1-1.878-.606 2.136 2.136 0 0 1-.64-1.514l-.155-19.13a2.15 2.15 0 0 1 2.13-2.165 2.216 2.216 0 0 1 1.543.585 1.86 1.86 0 0 1 .62 1.353l.007.9a1.738 1.738 0 0 0 1.755 1.741h.015l3.775-.031a1.65 1.65 0 0 0 1.677-1.769l-.007-.831a9.285 9.285 0 0 0-9.443-9.1 9.381 9.381 0 0 0-9.293 9.445l.156 19.13a9.38 9.38 0 0 0 9.368 9.293h.078a9.379 9.379 0 0 0 9.293-9.445l-.046-5.694a5.112 5.112 0 0 0-1.464-3.71z" class="cls-2" transform="translate(-213.448 -200.561)"/>
                </g>
                <g id="Groupe_12" transform="translate(72.2 9.377)">
                    <path id="Tracé_18" d="M249.273 209.9h-.037a3.408 3.408 0 0 0-3.547 3.6l.2 24.013a3.4 3.4 0 0 0 3.566 3.547h.039a3.405 3.405 0 0 0 3.546-3.6l-.195-24.013a3.419 3.419 0 0 0-3.572-3.547z" class="cls-2" transform="translate(-245.69 -209.899)"/>
                </g>
                <g id="Groupe_13" transform="translate(71.962)">
                    <path id="Tracé_19" d="M249.1 204.37h.031a2.1 2.1 0 0 0 .387-.051c.03-.007.061-.014.054-.016l.136-.012a3.753 3.753 0 0 0-.606-7.453 2.307 2.307 0 0 0-.421.052c-.031.006-.062.014-.055.016l-.134.011a3.74 3.74 0 0 0-2.432 1.506 3.692 3.692 0 0 0-.645 2.8 3.777 3.777 0 0 0 3.685 3.147z" class="cls-2" transform="translate(-245.359 -196.838)"/>
                </g>
                <g id="Groupe_14" transform="translate(84.326 2.699)">
                    <path id="Tracé_20" d="M280.009 233.378a8.825 8.825 0 0 0 1.032-4.1l-.159-19.608a9.151 9.151 0 0 0-18.3.149l.159 19.608a9.169 9.169 0 0 0 9.226 9.076 8.489 8.489 0 0 0 3.2-.681l1.573 1.26a2.589 2.589 0 0 0 1.707.679h.021a2.831 2.831 0 0 0 2.034-1.032l.953-1.23a2.178 2.178 0 0 0-.267-3.178zm-10.838-4.066l-.159-19.607a2.648 2.648 0 0 1 2.631-2.674h.022a2.65 2.65 0 0 1 2.652 2.631l.155 19.085-1.607-1.317-2.97 3.677a2.634 2.634 0 0 1-.724-1.795z" class="cls-2" transform="translate(-262.58 -200.597)"/>
                </g>
                <g id="Groupe_15" transform="translate(107.056 2.688)">
                    <path id="Tracé_21" d="M308.947 200.582h-.036a3.438 3.438 0 0 0-2.526 1.021 3.627 3.627 0 0 0-.955 2.607l.2 24.869a2.155 2.155 0 0 1-.6 1.519 2.048 2.048 0 0 1-1.472.638 2.113 2.113 0 0 1-1.482-.613 2.154 2.154 0 0 1-.622-1.509l-.2-24.87a3.4 3.4 0 0 0-3.5-3.57h-.036a3.442 3.442 0 0 0-2.526 1.022 3.628 3.628 0 0 0-.954 2.606l.2 24.87a9.233 9.233 0 0 0 9.1 9.262h.075a8.927 8.927 0 0 0 6.406-2.8 9.394 9.394 0 0 0 2.625-6.614l-.2-24.87a3.4 3.4 0 0 0-3.497-3.568z" class="cls-2" transform="translate(-294.239 -200.582)"/>
                </g>
                <g id="Groupe_16" transform="translate(130.177 3.045)">
                    <path id="Tracé_22" d="M342.865 232.936a3.089 3.089 0 0 0-2.322-.863l-7.559.034-.079-9.68 5.557-.018a2.723 2.723 0 0 0 1.966-.8 2.855 2.855 0 0 0 .757-2.03l-.007-.839a2.655 2.655 0 0 0-2.741-2.724h-.025l-5.559.018-.069-8.454 6.38-.034a3.059 3.059 0 0 0 3.172-3.29 3.185 3.185 0 0 0-.9-2.309 3.123 3.123 0 0 0-2.322-.863l-7.449.041a4.985 4.985 0 0 0-5.222 5.307l.219 26.924a4.98 4.98 0 0 0 5.251 5.223h.055l8.628-.041a3.158 3.158 0 0 0 2.312-.912 3.287 3.287 0 0 0 .86-2.377 3.182 3.182 0 0 0-.903-2.313z" class="cls-2" transform="translate(-326.442 -201.079)"/>
                </g>
                <g id="Groupe_17" transform="translate(0 2.658)">
                    <path id="Tracé_23" d="M167.219 201.251a2.769 2.769 0 0 0-1.988-.709 3.678 3.678 0 0 0-3.633 2.121l-5.129 9.912-5.069-9.875a3.686 3.686 0 0 0-3.532-2.1h-.027a2.623 2.623 0 0 0-2.71 2.6l.089 32.511c.006 1.928 1.413 2.841 3.145 2.85h.032a3.569 3.569 0 0 0 2.463-.884 3.433 3.433 0 0 0 .8-2.351l-.06-19.226 1.949 3.717c.9 1.693 1.9 2.554 2.981 2.56h.018c1.119 0 2.18-.924 2.985-2.582l1.927-3.728.054 19.221a3.426 3.426 0 0 0 .813 2.346 3.285 3.285 0 0 0 2.37.923 3.6 3.6 0 0 0 2.457-.937 3.434 3.434 0 0 0 .8-2.351l-.089-32.146a2.738 2.738 0 0 0-.646-1.872z" class="cls-2" transform="translate(-145.127 -200.541)"/>
                </g>
                <g id="Groupe_18" transform="translate(25.102 2.625)">
                    <path id="Tracé_24" d="M193.757 202.9a3.125 3.125 0 0 0-6.087.023l-7.484 32.524a2.659 2.659 0 0 0 .4 2.322 2.626 2.626 0 0 0 2.131.889h.035a3.909 3.909 0 0 0 3.859-3.1l1.377-5.989 5.668-.022 1.424 5.976a3.907 3.907 0 0 0 3.848 3.068h.035a2.421 2.421 0 0 0 2.535-3.231zm-4.974 20.733l2.042-8.952 2.112 8.936z" class="cls-2" transform="translate(-180.089 -200.494)"/>
                </g>
            </g>
        </g>
    </g>
</svg>
