<svg xmlns="http://www.w3.org/2000/svg" width="121.601" height="43.458" viewBox="0 0 121.601 43.458">
    <defs>
        <style>
            .cls-1{fill:#1d1d1b;stroke:#1d1d1b;stroke-width:.5px}.cls-2{stroke:#000;stroke-width:1.5px}
        </style>
    </defs>
    <g id="Groupe_570" transform="translate(-99.193 -1640.312)">
        <g id="Groupe_569" transform="translate(-14.558 1860.312)">
            <path id="Tracé_466" d="M241.624-198.459h-1.757l1.007-5.569a.834.834 0 0 0-.674-.972.834.834 0 0 0-.968.672l-1.061 5.866h-11.219a.833.833 0 0 0-.833.833v30.537a.833.833 0 0 0 .833.833h14.671a.833.833 0 0 0 .833-.833v-30.537a.833.833 0 0 0-.832-.83zm-.833 1.667v4.916a3.661 3.661 0 0 0-1.544.889 2.175 2.175 0 0 1-.826.526l1.145-6.331zm-2.919 0l-1.071 5.922-.137-.117a3.355 3.355 0 0 0-2.377-.988 3.354 3.354 0 0 0-2.376.989 1.716 1.716 0 0 1-1.29.586 1.718 1.718 0 0 1-1.291-.586 3.664 3.664 0 0 0-1.543-.889v-4.916zm-10.086 28.87v-22.16a4.233 4.233 0 0 1 .458.359 3.354 3.354 0 0 0 2.377.989 3.353 3.353 0 0 0 2.376-.989 1.716 1.716 0 0 1 1.29-.586 1.719 1.719 0 0 1 1.291.586 4.639 4.639 0 0 0 .9.644l-2.019 11.163a.833.833 0 0 0 .672.968.828.828 0 0 0 .149.014.834.834 0 0 0 .819-.685l2.012-11.124a3.393 3.393 0 0 0 2.222-.979 4.213 4.213 0 0 1 .459-.36v22.16z" class="cls-1" transform="translate(-80.966 -10.646)"/>
            <path id="Tracé_467" d="M135.83-203.357a5.386 5.386 0 0 0-5.311 4.549h-10.966l-3.306-5.343a.833.833 0 0 0-1.147-.27.833.833 0 0 0-.27 1.147l2.763 4.467h-2.747a.833.833 0 0 0-.74.45.833.833 0 0 0 .059.864l10.585 15.013v14.892h-4.67a.833.833 0 0 0-.833.833.833.833 0 0 0 .833.833h11.007a.833.833 0 0 0 .833-.833.833.833 0 0 0-.833-.833h-4.67v-14.892l7.4-10.505a5.347 5.347 0 0 0 2.009.393 5.388 5.388 0 0 0 5.382-5.382 5.388 5.388 0 0 0-5.378-5.383zm-2.477 8.143a3.715 3.715 0 0 1-1.141-1.928h2.5zm-14.728-1.928l2.589 4.184a3.61 3.61 0 0 0-2.138-.64.819.819 0 0 0-.115.011l-2.507-3.556zm6.958 12.951l-5.11-7.249.168.127a3.9 3.9 0 0 0 2.169.937l.8 1.3a.832.832 0 0 0 .709.4.829.829 0 0 0 .437-.125.833.833 0 0 0 .27-1.147l-.4-.653a4.787 4.787 0 0 0 1.167-.7 2.236 2.236 0 0 1 1.566-.617 2.236 2.236 0 0 1 1.566.617 4.757 4.757 0 0 0 1.181.708zm5.541-7.86a2.4 2.4 0 0 1-1.192-.589 3.837 3.837 0 0 0-2.575-.957 3.838 3.838 0 0 0-2.575.957 2.537 2.537 0 0 1-1.061.569l-3.137-5.071h9.935a5.38 5.38 0 0 0 1.868 3.3zm4.706-2.209a3.708 3.708 0 0 1-1.01-.143l2.18-3.093a.834.834 0 0 0 .059-.864.833.833 0 0 0-.74-.45h-4.107a3.72 3.72 0 0 1 3.618-2.882 3.72 3.72 0 0 1 3.716 3.715 3.72 3.72 0 0 1-3.716 3.718z" class="cls-1" transform="translate(0 -10.98)"/>
            <path id="Tracé_468" d="M507.768-203.08l-1.117-15.243a.831.831 0 0 0 .249-.594.833.833 0 0 0-.833-.833h-4.349a.833.833 0 0 0-.833.833.83.83 0 0 0 .25.594l-1.117 15.243a7.413 7.413 0 0 0-3.553 6.337v19.118a.833.833 0 0 0 .833.833h13.191a.833.833 0 0 0 .833-.833v-19.118a7.414 7.414 0 0 0-3.554-6.337zm-9.638 24.622v-18.285a5.753 5.753 0 0 1 3.074-5.1.834.834 0 0 0 .442-.676l1.141-15.568H505l1.141 15.568a.834.834 0 0 0 .442.676 5.753 5.753 0 0 1 3.075 5.1v2.216h-8.3a.833.833 0 0 0-.833.833v10.46a.833.833 0 0 0 .833.833h8.3v3.941zm11.524-5.608h-7.47v-8.794h7.47z" class="cls-1" transform="translate(-276.219)"/>
            <path id="Tracé_469" d="M437.111-170.073v-.074l-1.064-12.008a.833.833 0 0 0-.83-.76h-9.929a.833.833 0 0 0-.83.76l-1.064 12.008v.074a6.87 6.87 0 0 0 6.028 6.809v11.3h-4.67a.833.833 0 0 0-.833.833.833.833 0 0 0 .833.833h11.007a.833.833 0 0 0 .833-.833.833.833 0 0 0-.833-.833h-4.67v-11.3a6.87 6.87 0 0 0 6.022-6.809zm-2.66-11.174l.634 7.149a3.028 3.028 0 0 1-.556-.427 3.237 3.237 0 0 0-2.329-1 3.236 3.236 0 0 0-2.329 1 1.613 1.613 0 0 1-1.224.577 1.611 1.611 0 0 1-1.222-.577 3.339 3.339 0 0 0-1.886-.969l.51-5.754zm-9.4 11.21l.336-3.792a1.819 1.819 0 0 1 .928.551 3.234 3.234 0 0 0 2.328 1 3.236 3.236 0 0 0 2.329-1 1.614 1.614 0 0 1 1.224-.578 1.614 1.614 0 0 1 1.224.578 3.379 3.379 0 0 0 1.819.956l.2 2.285a5.2 5.2 0 0 1-5.195 5.159 5.2 5.2 0 0 1-5.189-5.159z" class="cls-1" transform="translate(-223.441 -26.604)"/>
            <path id="Tracé_471" d="M329-111.191h-5.644a6.629 6.629 0 0 0 .839-1.309 4.674 4.674 0 0 0 4.506-4.664 4.677 4.677 0 0 0-3.84-4.594v-1.057a.833.833 0 0 0-.833-.833h-15.265a.833.833 0 0 0-.833.833v7.43a6.622 6.622 0 0 0 1.5 4.194h-5.64a.833.833 0 0 0-.833.833.833.833 0 0 0 .833.833h3.877a2.918 2.918 0 0 0 2.791 2.08h11.87a2.893 2.893 0 0 0 2.061-.853 2.9 2.9 0 0 0 .732-1.227H329a.833.833 0 0 0 .833-.833.833.833 0 0 0-.833-.833zm-1.966-5.974a3.009 3.009 0 0 1-2.275 2.912 6.589 6.589 0 0 0 .1-1.133v-4.665a3.009 3.009 0 0 1 2.173 2.886zm-17.434 1.779v-6.6h13.6v6.6a4.955 4.955 0 0 1-2.322 4.194h-8.953a4.955 4.955 0 0 1-2.325-4.194zm13.615 5.91a1.239 1.239 0 0 1-.882.365h-11.87a1.246 1.246 0 0 1-.927-.414h13.726c-.019.017-.034.033-.05.049z" class="cls-1" transform="translate(-136.462 -69.408)"/>
            <g id="Groupe_258" transform="translate(174.332 -203.74)">
                <path id="Tracé_557" d="M121.583 470.942a1.667 1.667 0 0 1 0-2.735l.116-.115a.338.338 0 1 0-.479-.476l-.112.111a2.324 2.324 0 0 0 0 3.7 1.667 1.667 0 0 1 0 2.734c-.091.089-.181.179-.268.273a.338.338 0 1 0 .5.458c.079-.086.163-.168.246-.25a2.324 2.324 0 0 0 0-3.695z" class="cls-2" transform="translate(-120.195 -467.517)"/>
                <path id="Tracé_558" d="M140.757 470.942a1.667 1.667 0 0 1 0-2.735l.116-.115a.338.338 0 1 0-.479-.476l-.112.111a2.324 2.324 0 0 0 0 3.7 1.667 1.667 0 0 1 0 2.735c-.09.089-.181.179-.267.272a.338.338 0 1 0 .5.458c.079-.086.163-.168.246-.25a2.324 2.324 0 0 0 0-3.695z" class="cls-2" transform="translate(-135.156 -467.517)"/>
                <path id="Tracé_559" d="M159.931 470.942a1.667 1.667 0 0 1 0-2.735l.116-.115a.338.338 0 1 0-.479-.476l-.112.111a2.324 2.324 0 0 0 0 3.7 1.667 1.667 0 0 1 0 2.734c-.09.089-.181.179-.267.273a.338.338 0 1 0 .5.458c.079-.086.163-.168.246-.25a2.324 2.324 0 0 0 0-3.695z" class="cls-2" transform="translate(-150.116 -467.517)"/>
            </g>
        </g>
    </g>
</svg>
