<svg xmlns="http://www.w3.org/2000/svg" width="1095.458" height="143.99" viewBox="0 0 1095.458 143.99">
    <defs>
        <style>
            .cls-1,.cls-2{fill:none;stroke:#1d1d1b;stroke-linecap:round;stroke-linejoin:round;stroke-width:5px}.cls-2{stroke-dasharray:10}
        </style>
    </defs>
    <g id="Groupe_396" transform="translate(-412.5 -118.683)">
        <g id="Groupe_360" transform="translate(-32 -5359)">
            <path id="Tracé_738" d="M935.891 733.714c16.013 0 16.013-14.173 32.027-14.173s16.014 14.173 32.029 14.173 16.014-14.173 32.029-14.173 16.015 14.173 32.029 14.173 16.017-14.173 32.033-14.173 16.017 14.173 32.033 14.173" class="cls-1" transform="translate(345.391 4864.459)"/>
            <path id="Tracé_736" d="M615.609 733.714c16.013 0 16.013-14.173 32.025-14.173s16.013 14.173 32.025 14.173 16.012-14.173 32.025-14.173" class="cls-1" transform="translate(-7.609 4864.459)"/>
            <path id="Tracé_733" d="M7.031 719.541c16.012 0 16.012 14.173 32.024 14.173s16.013-14.173 32.027-14.173 16.011 14.173 32.023 14.173 16.013-14.173 32.026-14.173 16.012 14.173 32.024 14.173 16.013-14.173 32.025-14.173 16.013 14.173 32.026 14.173 16.014-14.173 32.028-14.173 16.013 14.173 32.027 14.173 16.012-14.173 32.024-14.173 16.011 14.173 32.023 14.173 16.014-14.173 32.028-14.173 16.014 14.173 32.029 14.173 16.014-14.173 32.029-14.173 16.015 14.173 32.029 14.173 16.017-14.173 32.033-14.173 16.017 14.173 32.033 14.173" class="cls-1" transform="translate(985.969 4885.459)"/>
            <path id="Tracé_744" d="M7.031 719.541c16.012 0 16.012 14.173 32.024 14.173s16.013-14.173 32.027-14.173 16.011 14.173 32.023 14.173 16.013-14.173 32.026-14.173 16.012 14.173 32.024 14.173 16.013-14.173 32.025-14.173 16.013 14.173 32.026 14.173 16.014-14.173 32.028-14.173 16.013 14.173 32.027 14.173 16.012-14.173 32.024-14.173 16.011 14.173 32.023 14.173 16.014-14.173 32.028-14.173 16.014 14.173 32.029 14.173 16.014-14.173 32.029-14.173 16.015 14.173 32.029 14.173 16.017-14.173 32.033-14.173 16.017 14.173 32.033 14.173" class="cls-1" transform="translate(439.969 4885.459)"/>
        </g>
        <g id="Groupe_359" transform="translate(427.325 -487.93)">
            <path id="Tracé_739" d="M103.644 649.933a163.52 163.52 0 0 1-14.1-19.1l-8.761 4.723a106.241 106.241 0 0 1-12.482 6.03c-8.248 3.163-19.914 5-29.272 6.508a163.484 163.484 0 0 0 14.1 19.1c9.358-1.511 21.024-3.345 29.272-6.508a106.136 106.136 0 0 0 12.482-6.03z" class="cls-1" transform="translate(0 -1.59)"/>
            <path id="Tracé_740" d="M97.443 640.439c3.922 5.243 9.43 14.351 13.7 19.311" class="cls-2" transform="translate(-19.724 -4.834)"/>
        </g>
        <g id="Groupe_361" transform="translate(232.54 -347.686)">
            <path id="Rectangle_119" d="M0 0H68.722V22.824H0z" class="cls-1" transform="translate(1042.42 527.431)"/>
            <path id="Rectangle_120" d="M0 0H44.615V12.839H0z" class="cls-1" transform="translate(1042.42 514.592)"/>
            <path id="Ligne_110" d="M0 0L0 22.824" class="cls-1" transform="translate(1052.37 527.431)"/>
            <path id="Ligne_111" d="M0 0L0 22.824" class="cls-1" transform="translate(1062.641 527.431)"/>
            <circle id="Ellipse_84" cx="6.901" cy="6.901" r="6.901" class="cls-1" transform="translate(1091.929 531.942)"/>
            <circle id="Ellipse_85" cx="6.901" cy="6.901" r="6.901" class="cls-1" transform="translate(1071.026 531.942)"/>
            <path id="Tracé_742" d="M1039.4 593.52c-4.1-4.411-6.939-10.493-6.939-22.191h110.7c0 8.41-3.5 22.076-13.79 27.33" class="cls-1" transform="translate(0 -21.074)"/>
            <path id="Ligne_112" d="M0 0L108.842 0" class="cls-1" transform="translate(1033.118 557.056)"/>
            <path id="Rectangle_121" d="M0 0H13V13.5H0z" class="cls-1" transform="translate(1123.46 536.686)"/>
        </g>
        <path id="Tracé_743" d="M165.33 1717.165c25.048-10.365 55.488-6.349 76.99 10.158 4.721 3.624 9.043 7.8 14.144 10.871 14.877 8.946 34.513 6.893 49.7-1.522 4.538-2.514 8.983-5.781 11.087-10.522 3.19-7.189-.322-16.293-6.969-20.5s-15.555-3.857-22.543-.246a22.026 22.026 0 0 0-9.4 8.844c-2.979 5.518-2.853 12.4-.455 18.19s6.878 10.554 12.048 14.1c10.063 6.906 22.478 9.39 34.608 10.739s24.468 1.74 36.2 5.108c6.833 1.962 13.721 5.2 17.692 11.1" class="cls-2" transform="rotate(-2 -44733.142 -9668.599)"/>
    </g>
</svg>
