<svg xmlns="http://www.w3.org/2000/svg" width="53.92" height="31.919" viewBox="0 0 53.92 31.919">
    <defs>
        <style>
            .cls-1{fill:#1d1d1b;stroke:#000;stroke-width:.7px}
        </style>
    </defs>
    <g id="Groupe_535" transform="translate(.35 .35)">
        <path id="Tracé_476" d="M-283.592-171.8a3.545 3.545 0 0 0 .54-.041 4.28 4.28 0 0 0 3.706-2.439 4.281 4.281 0 0 0-.55-4.506.817.817 0 0 0-.633-.3h-.005a4.284 4.284 0 0 0-3.457 1.82 3.58 3.58 0 0 0-2.142-.337.817.817 0 0 0-.583.4 3.622 3.622 0 0 0 .142 3.836 3.621 3.621 0 0 0 2.982 1.567zm2.665-5.621a2.6 2.6 0 0 1 .106 2.445 2.63 2.63 0 0 1-1.179 1.211v-.063c0-.062.006-.125.007-.187v-.1c0-.064 0-.128-.009-.192 0-.03 0-.06-.007-.089-.008-.081-.019-.163-.032-.243v-.034c-.016-.093-.036-.185-.06-.276l-.021-.072c-.018-.067-.038-.133-.061-.2l-.033-.092c-.022-.059-.045-.118-.07-.176l-.041-.092c-.028-.06-.058-.119-.09-.178-.014-.026-.026-.051-.041-.077-.047-.083-.1-.165-.151-.244-.036-.053-.074-.106-.113-.157a2.65 2.65 0 0 1 1.794-1.188zm-4.546 1.411a1.984 1.984 0 0 1 1.221.519 1.864 1.864 0 0 1 .292.336 2.016 2.016 0 0 1 .132.226l.031.069c.026.055.049.112.069.169.01.027.018.055.027.082q.025.084.043.169c.006.027.012.054.016.081a1.951 1.951 0 0 1 .021.2v.051a1.954 1.954 0 0 1-.008.252c0 .019-.006.038-.008.056a1.946 1.946 0 0 1-.033.193c-.006.028-.014.055-.022.083l-.029.091a1.981 1.981 0 0 1-1.508-.855 1.954 1.954 0 0 1-.245-1.726z" class="cls-1" transform="translate(295.809 179.092)"/>
        <path id="Tracé_477" d="M-292.365-158.388a4.644 4.644 0 0 0-4.468-3.4 4.623 4.623 0 0 0-3.775 1.946 6.155 6.155 0 0 0-.973-.078 6.118 6.118 0 0 0-4.534 2.026 4.78 4.78 0 0 0-1.281-1.043 3.885 3.885 0 0 0-3.361-.224 4.41 4.41 0 0 0-2.372 2.521 9.338 9.338 0 0 0-.385 1.387l-1.9-1.9a.816.816 0 0 0-1.127-.026c-.045.041-.086.082-.131.126a5.5 5.5 0 0 0-1.528 4.953.815.815 0 0 0-.661.8 15.15 15.15 0 0 0 7.24 12.908v2.294a.816.816 0 0 0 .816.816h14.276a.816.816 0 0 0 .816-.816v-2.375A15.15 15.15 0 0 0-288.6-151.3a.813.813 0 0 0-.388-.692 4.63 4.63 0 0 0 .388-1.846 4.629 4.629 0 0 0-3.765-4.55zm-9.216.1a4.5 4.5 0 0 1 1.156.151.816.816 0 0 0 .932-.409 3 3 0 0 1 2.66-1.61 3.006 3.006 0 0 1 2.977 2.615.816.816 0 0 0 .769.712 3 3 0 0 1 2.854 3 3 3 0 0 1-.543 1.722h-14.914l-.013-.03c-.048-.118-.092-.237-.13-.359-.008-.024-.014-.049-.021-.073-.033-.112-.061-.225-.085-.339 0-.019-.009-.038-.013-.058-.025-.126-.043-.253-.057-.382 0-.029-.006-.058-.008-.087-.012-.131-.02-.263-.02-.4q0-.15.01-.3a4.463 4.463 0 0 1 .342-1.438 4.4 4.4 0 0 1 .268-.53 4.476 4.476 0 0 1 3.836-2.189zm-10.355 3.461a8.478 8.478 0 0 1 .329-1.222 2.815 2.815 0 0 1 1.469-1.6 2.264 2.264 0 0 1 1.956.144 3.483 3.483 0 0 1 1.115 1.032c-.03.063-.057.126-.085.19-.014.033-.03.065-.044.1-.048.116-.094.233-.135.351l-.02.064c-.033.1-.064.2-.092.3-.012.042-.022.084-.032.127-.021.08-.04.16-.058.242l-.028.14c-.015.079-.028.158-.04.238l-.02.14c-.011.085-.019.171-.026.256 0 .041-.008.081-.01.122-.008.126-.013.252-.013.379s.006.276.015.413c0 .045.009.089.013.134.008.092.017.185.03.277.007.053.016.1.025.157.014.083.028.167.045.25.011.055.024.109.036.163.019.08.039.16.061.239.008.03.014.06.023.09h-2.951l-1.789-1.789c.09-.323.162-.635.226-.94zm-4.02-.559l3.276 3.276h-3.848a3.872 3.872 0 0 1 .572-3.279zm18.613 18.479h-12.645v-1.054h12.645zm.367-2.7h-13.508a13.521 13.521 0 0 1-6.718-10.871h26.944a13.522 13.522 0 0 1-6.718 10.868z" class="cls-1" transform="translate(318.859 166.497)"/>
        <path id="Tracé_478" d="M-174.732-129.645a3.5 3.5 0 0 0-2.8-3.424 6.96 6.96 0 0 0-6.841-5.779 6.962 6.962 0 0 0-6.845 5.783 3.5 3.5 0 0 0-2.778 3.421 3.5 3.5 0 0 0 3.072 3.469l.991 6.887a.816.816 0 0 0 .808.7h2.07a.8.8 0 0 0 .143.014h.062c.022 0 .043-.008.064-.011h2.283a.8.8 0 0 0 .136.014.8.8 0 0 0 .136-.014h2.284c.021 0 .042.01.064.011h.062a.8.8 0 0 0 .143-.014h2.054a.816.816 0 0 0 .808-.7l.991-6.884a3.5 3.5 0 0 0 3.093-3.473zm-14.568 3.285c.039-.014.076-.032.115-.047l.086-.035c.1-.042.189-.086.28-.136a6.975 6.975 0 0 0 .583.434l.446 5.924h-.626zm5.751 1.339a6.892 6.892 0 0 0 1.357-.3l-.384 5.1h-.973zm-1.632 4.8h-.973l-.383-5.1a6.886 6.886 0 0 0 1.357.3zm4.851 0h-.61l.447-5.934a6.886 6.886 0 0 0 .573-.428c.091.05.184.095.278.137l.084.035c.037.016.074.033.112.047zm2.1-7.558a1.886 1.886 0 0 1-.211-.011 1.859 1.859 0 0 1-1.016-.452.816.816 0 0 0-1.119.045 5.27 5.27 0 0 1-3.8 1.6 5.279 5.279 0 0 1-3.792-1.592.816.816 0 0 0-.125-.1c-.016-.011-.032-.017-.048-.027a.788.788 0 0 0-.091-.049c-.019-.008-.039-.013-.059-.019a.8.8 0 0 0-.089-.027c-.021 0-.042-.006-.064-.008a.767.767 0 0 0-.09-.009h-.016c-.022 0-.044 0-.065.006s-.043 0-.064.005a.827.827 0 0 0-.084.02c-.02.005-.039.009-.058.016a.818.818 0 0 0-.09.041c-.015.008-.031.013-.046.021a.82.82 0 0 0-.126.089 1.864 1.864 0 0 1-1.031.446 1.606 1.606 0 0 1-.19.011 1.867 1.867 0 0 1-1.863-1.866 1.869 1.869 0 0 1 1.879-1.863.816.816 0 0 0 .814-.761 5.322 5.322 0 0 1 5.3-4.948 5.32 5.32 0 0 1 5.295 4.948.816.816 0 0 0 .814.761h.033a1.865 1.865 0 0 1 1.863 1.863 1.866 1.866 0 0 1-1.858 1.86z" class="cls-1" transform="translate(227.953 149.794)"/>
        <path id="Tracé_479" d="M-169.455-125.9a.817.817 0 0 0-.984-.6.816.816 0 0 0-.6.984l.208.868a.816.816 0 0 0 .793.626.827.827 0 0 0 .191-.023.816.816 0 0 0 .6-.984z" class="cls-1" transform="translate(211.262 140.822)"/>
        <path id="Tracé_480" d="M-154-120.4a.816.816 0 0 0-1.118.284l-.452.759a.816.816 0 0 0 .284 1.118.812.812 0 0 0 .416.115.816.816 0 0 0 .7-.4l.451-.759A.816.816 0 0 0-154-120.4z" class="cls-1" transform="translate(200.063 136.448)"/>
        <path id="Tracé_481" d="M-172.631-110.557a.815.815 0 0 0-1.151.077.816.816 0 0 0 .077 1.151l.555.486a.814.814 0 0 0 .537.2.814.814 0 0 0 .614-.279.816.816 0 0 0-.077-1.151z" class="cls-1" transform="translate(213.387 129.344)"/>
        <path id="Tracé_482" d="M-145.434-110.235l-.521.243a.816.816 0 0 0-.394 1.084.815.815 0 0 0 .74.471.811.811 0 0 0 .345-.077l.521-.243a.816.816 0 0 0 .394-1.084.816.816 0 0 0-1.085-.394z" class="cls-1" transform="translate(193.324 129.019)"/>
    </g>
</svg>
