<svg xmlns="http://www.w3.org/2000/svg" width="39.645" height="39.645" viewBox="0 0 39.645 39.645">
    <defs>
        <style>
            .cls-1{stroke:#000;stroke-width:.5px}
        </style>
    </defs>
    <g id="helm" transform="translate(.25 .25)">
        <g id="Groupe_238">
            <g id="Groupe_237">
                <path id="Tracé_519" d="M38 18.426h-1.264A17.051 17.051 0 0 0 32.52 8.247l.838-.838a1.147 1.147 0 1 0-1.622-1.622l-.838.838a17.05 17.05 0 0 0-10.179-4.216V1.147a1.147 1.147 0 0 0-2.294 0v1.262A17.051 17.051 0 0 0 8.247 6.625l-.838-.838a1.147 1.147 0 0 0-1.622 1.622l.838.838a17.051 17.051 0 0 0-4.216 10.179H1.147a1.147 1.147 0 0 0 0 2.294h1.262A17.051 17.051 0 0 0 6.625 30.9l-.838.838a1.147 1.147 0 0 0 1.622 1.622l.838-.838a17.051 17.051 0 0 0 10.179 4.216V38a1.147 1.147 0 0 0 2.294 0v-1.264A17.051 17.051 0 0 0 30.9 32.52l.838.838a1.147 1.147 0 1 0 1.622-1.622l-.84-.836a17.051 17.051 0 0 0 4.216-10.179H38a1.147 1.147 0 0 0 0-2.294zM19.572 34.481a14.909 14.909 0 1 1 14.909-14.909 14.926 14.926 0 0 1-14.909 14.909z" class="cls-1"/>
            </g>
        </g>
        <g id="Groupe_240" transform="translate(6.957 6.957)">
            <g id="Groupe_239">
                <path id="Tracé_520" d="M103.615 91a12.615 12.615 0 0 0 0 25.23 12.615 12.615 0 0 0 0-25.23zm10.257 11.468h-4.639a5.7 5.7 0 0 0-.837-2.013l3.279-3.279a10.272 10.272 0 0 1 2.197 5.292zm-9.11-9.11a10.273 10.273 0 0 1 5.292 2.2l-3.279 3.279a5.7 5.7 0 0 0-2.013-.837zm-2.294 0V98a5.7 5.7 0 0 0-2.013.837l-3.279-3.279a10.273 10.273 0 0 1 5.292-2.2zm-6.914 3.819l3.279 3.279a5.7 5.7 0 0 0-.833 2.012h-4.642a10.273 10.273 0 0 1 2.196-5.292zm-2.2 7.586H98a5.7 5.7 0 0 0 .837 2.013l-3.279 3.279a10.272 10.272 0 0 1-2.2-5.293zm9.11 9.11a10.273 10.273 0 0 1-5.292-2.2l3.279-3.279a5.7 5.7 0 0 0 2.013.837zm1.147-6.817a3.44 3.44 0 1 1 3.44-3.44 3.444 3.444 0 0 1-3.436 3.439zm1.147 6.817v-4.639a5.7 5.7 0 0 0 2.013-.837l3.279 3.279a10.272 10.272 0 0 1-5.288 2.196zm6.914-3.819l-3.279-3.279a5.739 5.739 0 0 0 .837-2.021h4.639a10.3 10.3 0 0 1-2.193 5.3z" class="cls-1" transform="translate(-91 -91)"/>
            </g>
        </g>
    </g>
</svg>
