<svg xmlns="http://www.w3.org/2000/svg" width="31.954" height="31.589" viewBox="0 0 31.954 31.589">
    <defs>
        <style>
            .cls-1{stroke:#000;stroke-width:.5px}
        </style>
    </defs>
    <g id="Groupe_107" transform="translate(-838.662 -.25)">
        <circle id="Ellipse_14" cx="1.217" cy="1.217" r="1.217" class="cls-1" transform="translate(856.038 12.029)"/>
        <circle id="Ellipse_15" cx="1.217" cy="1.217" r="1.217" class="cls-1" transform="translate(861.331 12.029)"/>
        <circle id="Ellipse_16" cx="1.217" cy="1.217" r="1.217" class="cls-1" transform="translate(845.452 12.029)"/>
        <circle id="Ellipse_17" cx="1.217" cy="1.217" r="1.217" class="cls-1" transform="translate(850.745 12.029)"/>
        <circle id="Ellipse_18" cx="1.217" cy="1.217" r="1.217" class="cls-1" transform="translate(856.038 22.615)"/>
        <circle id="Ellipse_19" cx="1.217" cy="1.217" r="1.217" class="cls-1" transform="translate(861.331 22.615)"/>
        <path id="Tracé_214" d="M947.629 364a1.216 1.216 0 0 0-1.009 1.9q.033.049.07.094a1.225 1.225 0 0 0 .165.165 1.217 1.217 0 0 0 1.548 0 1.231 1.231 0 0 0 .165-.165q.037-.045.07-.094a1.217 1.217 0 0 0-1.009-1.9z" class="cls-1" transform="translate(-100.96 -341.385)"/>
        <path id="Tracé_215" d="M1034.629 364a1.216 1.216 0 0 0-1.009 1.9q.033.049.07.094a1.216 1.216 0 0 0 1.878 0q.037-.045.07-.094a1.217 1.217 0 0 0-1.009-1.9z" class="cls-1" transform="translate(-182.667 -341.385)"/>
        <path id="Tracé_216" d="M1121.629 277a1.216 1.216 0 0 0-1.009 1.9q.033.049.07.094a1.216 1.216 0 0 0 1.878 0q.037-.045.07-.094a1.217 1.217 0 0 0-1.009-1.9z" class="cls-1" transform="translate(-264.374 -259.678)"/>
        <circle id="Ellipse_20" cx="1.217" cy="1.217" r="1.217" class="cls-1" transform="translate(861.331 17.322)"/>
        <path id="Tracé_217" d="M947.629 277a1.216 1.216 0 0 0-1.009 1.9q.033.049.07.094a1.226 1.226 0 0 0 .165.165 1.217 1.217 0 0 0 1.548 0 1.232 1.232 0 0 0 .165-.165q.037-.045.07-.094a1.217 1.217 0 0 0-1.009-1.9z" class="cls-1" transform="translate(-100.96 -259.678)"/>
        <path id="Tracé_218" d="M1034.629 277a1.216 1.216 0 0 0-1.009 1.9q.033.049.07.094a1.216 1.216 0 0 0 1.878 0q.037-.045.07-.094a1.217 1.217 0 0 0-1.009-1.9z" class="cls-1" transform="translate(-182.667 -259.678)"/>
        <path id="Tracé_219" d="M864.951 2.873H863.8V1.747a1.247 1.247 0 0 0-2.495 0v1.126h-5.536V1.747a1.247 1.247 0 1 0-2.494 0v1.126h-5.415V1.747a1.247 1.247 0 1 0-2.494 0v1.126h-1.034a5.421 5.421 0 0 0-5.415 5.415v17.886a5.421 5.421 0 0 0 5.415 5.415h20.625a5.421 5.421 0 0 0 5.415-5.415V8.287a5.421 5.421 0 0 0-5.421-5.414zm2.92 23.3a2.924 2.924 0 0 1-2.92 2.92h-20.624a2.924 2.924 0 0 1-2.92-2.92V8.287a2.924 2.924 0 0 1 2.92-2.92h1.034v1.065a1.247 1.247 0 1 0 2.494 0V5.367h5.415v1.065a1.247 1.247 0 1 0 2.494 0V5.367h5.536v1.065a1.247 1.247 0 0 0 2.495 0V5.367h1.156a2.924 2.924 0 0 1 2.92 2.92z" class="cls-1"/>
    </g>
</svg>
