<svg xmlns="http://www.w3.org/2000/svg" width="45.313" height="30.387" viewBox="0 0 45.313 30.387">
    <defs>
        <style>
            .cls-1,.cls-2{stroke:#000}.cls-1{stroke-width:1.2px}.cls-2{fill:none;stroke-linecap:round;stroke-miterlimit:10;stroke-width:2.5px}
        </style>
    </defs>
    <g id="Groupe_532" transform="translate(-1501.665 -374.488)">
        <g id="Groupe_386" transform="translate(1502.915 375.088)">
            <g id="Groupe_262" transform="translate(19.72)">
                <g id="Groupe_259">
                    <path id="Tracé_560" d="M712.855 469.929a.363.363 0 0 1-.258-.107l-4.239-4.239a.365.365 0 0 1 0-.516l13.776-13.776a.365.365 0 0 1 .516 0l4.239 4.239a.365.365 0 0 1 0 .516l-13.776 13.776a.363.363 0 0 1-.258.107zm-3.723-4.6l3.723 3.723 13.26-13.26-3.723-3.723z" class="cls-1" transform="translate(-704.496 -449.942)"/>
                    <path id="Tracé_561" d="M703.909 533.322a.363.363 0 0 1-.258-.107l-4.239-4.239a.364.364 0 0 1 0-.516l1.632-1.631a.364.364 0 0 1 .516 0l4.239 4.239a.364.364 0 0 1 0 .516l-1.631 1.632a.363.363 0 0 1-.259.106zm-3.723-4.6l3.723 3.723 1.116-1.116-3.725-3.729z" class="cls-1" transform="translate(-697.181 -511.704)"/>
                    <path id="Tracé_562" d="M789.1 450.48a.365.365 0 0 1-.258-.623l.572-.572a1.588 1.588 0 0 0 0-2.243l-1.481-1.48a1.587 1.587 0 0 0-2.242 0l-.539.538a.365.365 0 0 1-.516-.516l.538-.538a2.318 2.318 0 0 1 3.274 0l1.48 1.48a2.318 2.318 0 0 1 0 3.274l-.572.572a.363.363 0 0 1-.256.108z" class="cls-1" transform="translate(-766.861 -444.37)"/>
                    <path id="Tracé_564" d="M724.205 481.4a.365.365 0 0 1-.258-.623l13.624-13.625a.365.365 0 0 1 .516.516L724.463 481.3a.363.363 0 0 1-.258.1z" class="cls-1" transform="translate(-717.727 -463.399)"/>
                    <path id="Tracé_565" d="M688.021 542.778a.365.365 0 0 1-.346-.48l2.119-6.347a.365.365 0 0 1 .6-.142l4.228 4.228a.365.365 0 0 1-.142.6l-6.347 2.119a.363.363 0 0 1-.112.022zm2.279-6.037l-1.7 5.095 5.095-1.7z" class="cls-1" transform="translate(-687.656 -519.045)"/>
                    <path id="Tracé_566" d="M693.058 559.579a.183.183 0 0 1-.183-.176.53.53 0 0 0-.489-.507.183.183 0 1 1 .028-.365.9.9 0 0 1 .827.858.183.183 0 0 1-.176.19z" class="cls-1" transform="translate(-690.856 -537.157)"/>
                </g>
            </g>
            <g id="Groupe_32" transform="translate(0 16.73)">
                <path id="Tracé_82" d="M-294 97.311c4.3 0 4.3 4.358 8.61 4.358s4.305-4.358 8.61-4.358" class="cls-2" transform="translate(294 -97.311)"/>
            </g>
            <g id="Groupe_33" transform="translate(0 24.179)">
                <path id="Tracé_82-2" d="M-294 97.311c4.3 0 4.3 4.358 8.61 4.358s4.305-4.358 8.61-4.358" class="cls-2" transform="translate(294 -97.311)"/>
            </g>
        </g>
    </g>
</svg>
