<svg xmlns="http://www.w3.org/2000/svg" width="27.511" height="28.574" viewBox="0 0 27.511 28.574">
    <defs>
        <style>
            .cls-1{stroke:#000}
        </style>
    </defs>
    <g id="Groupe_106" transform="translate(.5 .501)">
        <path id="Tracé_212" d="M143.552 96.764v6.058c.21 0 .4-.006.6 0 .257.01.569-.09.592.353.02.365-.035.665-.461.693a9.278 9.278 0 0 1-1.356.006c-.376-.031-.5-.272-.494-.671.024-1.911.011-3.822.011-5.733v-.624h-2.488v5.974a3.1 3.1 0 0 1 .733.014c.2.049.475.187.516.339s-.126.563-.226.572a11.008 11.008 0 0 1-1.89-.008c-.1-.009-.239-.38-.241-.584-.019-1.893-.011-3.786-.011-5.678v-.662c-.792 0-1.551.02-2.308 0a8.624 8.624 0 0 1-7.4-4.335 7.972 7.972 0 0 1-1.226-4.59c.038-1.091.029-2.184 0-3.276-.019-.709.015-.906.945-.9q5.246.01 10.493 0h.814v-2.155a5.407 5.407 0 0 1 10.111-2.489 5.758 5.758 0 0 1 .583 1.92c.077.392.18.577.6.545a2.857 2.857 0 0 1 2.092.509 1.975 1.975 0 0 1 .794 1.913.836.836 0 0 1-.643.393c-.885.045-1.775.018-2.718.018 0 1.227.023 2.406-.006 3.582a9.29 9.29 0 0 1-.985 4.183 8.809 8.809 0 0 1-6.431 4.633zm-14.164-6.416a7.982 7.982 0 0 0 7.969 5.385c1.492-.055 2.989-.045 4.481 0a7.67 7.67 0 0 0 7.7-5.573 12.417 12.417 0 0 0 .334-3.751c-.037-1.74-.03-3.482-.119-5.219a4.29 4.29 0 0 0-4.818-3.725 4.355 4.355 0 0 0-3.7 4.161c-.019 1.365-.007 2.73 0 4.1a6.68 6.68 0 0 1-9.524 6.191 16.02 16.02 0 0 1-2.323-1.57zm8.77-5.515h-8.593a4.3 4.3 0 0 0 8.593 0zm-8.789 2.954a5.437 5.437 0 0 0 6.388 3.54 5.667 5.667 0 0 0 4.322-6.49h-.787a5.377 5.377 0 0 1-3.612 4.963 5.461 5.461 0 0 1-6.312-2.014zm21.618-4.553h2.044c-.262-.663-1.1-.7-2.044-.555z" class="cls-1" transform="translate(-127.888 -76.324)"/>
        <path id="Tracé_213" d="M279.877 109.785a1.846 1.846 0 0 1 1.984 1.843c-.012.4-.152.686-.519.636a.9.9 0 0 1-.565-.564c-.16-.557-.427-.854-.948-.822a.79.79 0 0 0-.815.768c-.035.389-.225.631-.586.634-.431 0-.524-.3-.527-.7a1.84 1.84 0 0 1 1.976-1.795z" class="cls-1" transform="translate(-261.503 -106.114)"/>
    </g>
</svg>
