<svg xmlns="http://www.w3.org/2000/svg" width="30.559" height="31.498" viewBox="0 0 30.559 31.498">
    <defs>
        <style>
            .cls-1{fill:#1a1a1a;stroke:#1a1a1a}
        </style>
    </defs>
    <g id="Groupe_533" transform="translate(-82.524 179.592)">
        <g id="Groupe_582">
            <path id="Tracé_488" d="M118.208-171.973a3.469 3.469 0 0 0 .528-.04 4.181 4.181 0 0 0 3.62-2.383 4.182 4.182 0 0 0-.537-4.4.8.8 0 0 0-.618-.294h-.001a4.184 4.184 0 0 0-3.377 1.778 3.5 3.5 0 0 0-2.093-.329.8.8 0 0 0-.57.389 3.538 3.538 0 0 0 .139 3.747 3.538 3.538 0 0 0 2.909 1.532zm2.6-5.491a2.542 2.542 0 0 1 .1 2.388 2.571 2.571 0 0 1-1.151 1.188v-.062q.006-.091.006-.183v-.1c0-.063 0-.125-.009-.188 0-.029 0-.058-.006-.087-.008-.079-.018-.159-.031-.238v-.033q-.024-.136-.059-.27l-.02-.07c-.018-.065-.037-.13-.06-.194l-.032-.09c-.022-.058-.044-.115-.069-.172l-.04-.09c-.028-.059-.057-.117-.088-.174l-.04-.075c-.046-.081-.095-.161-.148-.239-.036-.052-.073-.1-.111-.153a2.588 2.588 0 0 1 1.761-1.158zm-4.441 1.378a1.937 1.937 0 0 1 1.193.507 1.821 1.821 0 0 1 .285.328 1.966 1.966 0 0 1 .129.221l.031.067c.025.054.048.109.067.165l.026.081c.016.054.03.109.042.165l.016.079a1.922 1.922 0 0 1 .021.194v.05a1.9 1.9 0 0 1-.008.246c0 .018-.006.037-.008.055-.008.063-.019.126-.033.188-.006.027-.014.054-.022.081l-.028.088a1.935 1.935 0 0 1-1.474-.835 1.91 1.91 0 0 1-.234-1.679z" class="cls-1" transform="translate(-23.25)"/>
            <path id="Tracé_489" d="M108.906-158.467a4.536 4.536 0 0 0-4.365-3.325 4.516 4.516 0 0 0-3.688 1.9 6.014 6.014 0 0 0-.95-.076 5.978 5.978 0 0 0-4.429 1.979 4.672 4.672 0 0 0-1.251-1.018 3.8 3.8 0 0 0-3.283-.218 4.307 4.307 0 0 0-2.317 2.463 9.128 9.128 0 0 0-.376 1.355l-1.86-1.86a.8.8 0 0 0-1.1-.025c-.044.04-.084.08-.128.123a5.374 5.374 0 0 0-1.488 4.846.8.8 0 0 0-.646.782 14.8 14.8 0 0 0 7.072 12.61v2.241a.8.8 0 0 0 .8.8h13.943a.8.8 0 0 0 .8-.8v-2.321a14.8 14.8 0 0 0 6.945-12.531.794.794 0 0 0-.379-.676 4.518 4.518 0 0 0 .379-1.8 4.522 4.522 0 0 0-3.679-4.449zm-9 .094a4.4 4.4 0 0 1 1.129.147.8.8 0 0 0 .91-.4 2.928 2.928 0 0 1 2.6-1.573 2.936 2.936 0 0 1 2.908 2.554.8.8 0 0 0 .752.7 2.929 2.929 0 0 1 2.788 2.929 2.931 2.931 0 0 1-.53 1.683H95.889l-.013-.03c-.047-.115-.09-.232-.127-.35l-.02-.071c-.032-.109-.06-.219-.084-.331 0-.019-.009-.037-.012-.056-.024-.123-.042-.248-.056-.373 0-.028-.005-.057-.008-.085-.011-.128-.019-.257-.019-.386q0-.147.01-.292a4.352 4.352 0 0 1 .334-1.405 4.339 4.339 0 0 1 .262-.518 4.373 4.373 0 0 1 3.744-2.142zm-10.116 3.381a8.349 8.349 0 0 1 .322-1.194 2.75 2.75 0 0 1 1.436-1.564 2.211 2.211 0 0 1 1.911.141 3.4 3.4 0 0 1 1.089 1.009c-.029.061-.056.124-.083.185-.014.032-.029.063-.043.1q-.071.17-.132.343l-.02.062c-.032.1-.062.192-.09.289l-.032.124c-.02.078-.039.157-.056.236-.01.046-.019.091-.027.137-.015.077-.028.155-.039.232-.007.046-.014.091-.019.137-.01.083-.018.167-.025.25 0 .04-.008.079-.01.119-.007.123-.012.247-.012.37s.005.269.015.4c0 .044.008.087.012.131.008.09.017.18.029.27l.024.153c.013.082.027.163.044.244l.036.159c.018.078.038.156.06.234.008.029.014.059.023.088h-2.888l-1.748-1.748c.087-.303.154-.608.22-.906zm-3.927-.546l3.2 3.2H85.3a3.782 3.782 0 0 1 .56-3.199zm18.183 18.052H91.69v-1.03h12.353zm.358-2.637h-13.2a13.21 13.21 0 0 1-6.563-10.62h26.322a13.209 13.209 0 0 1-6.563 10.621z" class="cls-1" transform="translate(0 -12.703)"/>
        </g>
    </g>
</svg>
