<svg xmlns="http://www.w3.org/2000/svg" width="40.017" height="37.36" viewBox="0 0 40.017 37.36">
    <defs>
        <style>
            .cls-1{stroke:#000;stroke-width:1.5px}
        </style>
    </defs>
    <g id="Groupe_256" transform="translate(-553.317 -229.989)">
        <circle id="Ellipse_44" cx=".756" cy=".756" r=".756" class="cls-1" transform="translate(560.918 237.715)"/>
        <path id="Tracé_549" d="M566.864 248.549c-8.07 0-12.517-8.008-12.7-8.349a.692.692 0 0 1-.007-.647c.185-.36 4.629-8.814 12.709-8.814 7.912 0 17.548 8.034 17.954 8.375a.692.692 0 0 1 0 1.059c-.408.342-10.044 8.376-17.956 8.376zm-11.295-8.689c.9 1.45 4.921 7.3 11.295 7.3 6.278 0 14.106-5.728 16.4-7.521-2.3-1.793-10.124-7.521-16.4-7.521-6.384.005-10.412 6.231-11.295 7.742z" class="cls-1"/>
        <path id="Tracé_550" d="M647.312 260.961h-2.43a6.06 6.06 0 0 1-6.053-6.053.692.692 0 0 1 .692-.692h2.43A6.059 6.059 0 0 1 648 260.27a.692.692 0 0 1-.688.691zm-7.048-5.361a4.676 4.676 0 0 0 4.617 3.977h1.687a4.676 4.676 0 0 0-4.617-3.977z" class="cls-1" transform="translate(-55.43 -15.356)"/>
        <path id="Tracé_551" d="M641.951 245.439h-2.43a.692.692 0 0 1-.692-.692 6.06 6.06 0 0 1 6.053-6.053h2.43a.692.692 0 0 1 .692.692 6.059 6.059 0 0 1-6.053 6.053zm-1.687-1.384h1.687a4.676 4.676 0 0 0 4.617-3.977h-1.687a4.676 4.676 0 0 0-4.617 3.978z" class="cls-1" transform="translate(-55.43 -5.204)"/>
        <path id="Tracé_552" d="M580.8 249.174a.692.692 0 0 1-.346-1.291 7.778 7.778 0 0 0-1.031-13.982.692.692 0 1 1 .506-1.288 9.162 9.162 0 0 1 1.216 16.47.691.691 0 0 1-.345.091z" class="cls-1" transform="translate(-16.292 -1.194)"/>
        <circle id="Ellipse_45" cx=".756" cy=".756" r=".756" class="cls-1" transform="translate(584.221 255.765)"/>
        <path id="Tracé_553" d="M593.983 300.723c-7.912 0-17.548-8.034-17.955-8.375a.692.692 0 0 1 0-1.059c.406-.342 10.042-8.375 17.955-8.375 8.079 0 12.523 8.454 12.708 8.814a.69.69 0 0 1-.008.647c-.183.34-4.631 8.348-12.7 8.348zm-16.4-8.905c2.3 1.793 10.124 7.521 16.4 7.521 6.389 0 10.4-5.855 11.295-7.3-.882-1.51-4.911-7.737-11.295-7.737-6.283-.002-14.106 5.723-16.403 7.516z" class="cls-1" transform="translate(-14.195 -34.124)"/>
        <path id="Tracé_554" d="M557.2 313.135h-2.43a.692.692 0 0 1-.692-.692 6.06 6.06 0 0 1 6.053-6.053h2.43a.692.692 0 0 1 .692.692 6.059 6.059 0 0 1-6.053 6.053zm-1.687-1.384h1.687a4.676 4.676 0 0 0 4.617-3.977h-1.687a4.676 4.676 0 0 0-4.617 3.978z" class="cls-1" transform="translate(0 -49.479)"/>
        <path id="Tracé_555" d="M562.561 297.614h-2.43a6.06 6.06 0 0 1-6.053-6.053.692.692 0 0 1 .692-.692h2.43a6.059 6.059 0 0 1 6.052 6.053.692.692 0 0 1-.691.692zm-7.048-5.361a4.676 4.676 0 0 0 4.617 3.977h1.687a4.676 4.676 0 0 0-4.617-3.977z" class="cls-1" transform="translate(0 -39.327)"/>
        <path id="Tracé_556" d="M625.849 301.349a.69.69 0 0 1-.345-.092 9.162 9.162 0 0 1 1.216-16.469.692.692 0 0 1 .506 1.288 7.778 7.778 0 0 0-1.032 13.982.692.692 0 0 1-.346 1.291z" class="cls-1" transform="translate(-43.711 -35.318)"/>
    </g>
</svg>
