<svg xmlns="http://www.w3.org/2000/svg" width="34.67" height="34.786" viewBox="0 0 34.67 34.786">
    <defs>
        <style>
            .cls-1{fill:none;stroke:#000;stroke-linecap:round;stroke-linejoin:round;stroke-width:2.5px}
        </style>
    </defs>
    <g id="Groupe_548" transform="translate(-150.36 -347.131)">
        <g id="Groupe_274" transform="translate(151.62 355.162)">
            <path id="Tracé_599" d="M160.445 379.277l1.764-11.65a2.087 2.087 0 0 1 .1-.427 2.106 2.106 0 0 1 4.077.961l-.9 7.063-.089.71a2.19 2.19 0 0 1 .231.028l.3-.78 3.136-8.162a2.115 2.115 0 0 1 2.668-1.229l.054.019a2.111 2.111 0 0 1 1.207 2.721l-2.9 7.549-.463 1.2.157.055.7-1.04 4.194-6.243a2.1 2.1 0 0 1 3.492 2.348l-4.192 6.236 3.822-3.282a2.1 2.1 0 1 1 2.741 3.19l-6.136 4.542-.039.088a7.962 7.962 0 0 1-15.016 3.66 7.615 7.615 0 0 1-.69-1.836c-.034-.09-.067-.183-.1-.276l-3.907-7.384a2.105 2.105 0 0 1 3.722-1.969z" class="cls-1" transform="translate(-154.41 -365.67)"/>
            <path id="Tracé_600" d="M179.212 411.207c1.084-3.087.626-5.06-1.53-6.811" class="cls-1" transform="translate(-168.69 -389.433)"/>
        </g>
        <path id="Tracé_601" d="M216.572 366.094c-.907-3.792-2.656-5.83-6.736-6.413" class="cls-1" transform="translate(-36.8 -6.833)"/>
        <path id="Tracé_602" d="M220.686 358.312c-1.381-5.775-4.045-8.879-10.26-9.767" class="cls-1" transform="translate(-37.162)"/>
    </g>
</svg>
