<svg xmlns="http://www.w3.org/2000/svg" id="Groupe_231" width="38" height="28.532" viewBox="0 0 38 28.532">
    <defs>
        <style>
            .cls-1{fill:#1d1d1b}
        </style>
    </defs>
    <path id="Tracé_502" d="M321.247 232.739a8.9 8.9 0 0 0-6.34 2.622 1.642 1.642 0 0 0 0 2.323 1.68 1.68 0 0 0 2.324 0 5.686 5.686 0 0 1 8.032 0 1.682 1.682 0 0 0 2.325 0 1.642 1.642 0 0 0 0-2.323 8.9 8.9 0 0 0-6.341-2.622z" class="cls-1" transform="translate(-302.247 -215.523)"/>
    <path id="Tracé_503" d="M305.916 225.033a1.644 1.644 0 1 0 2.325 2.324 13.834 13.834 0 0 1 19.542 0 1.683 1.683 0 0 0 2.324 0 1.643 1.643 0 0 0 0-2.324 17.127 17.127 0 0 0-24.191 0z" class="cls-1" transform="translate(-299.012 -210.951)"/>
    <path id="Tracé_504" d="M332.921 213.505a26.219 26.219 0 0 0-37.037 0 1.644 1.644 0 0 0 0 2.324 1.681 1.681 0 0 0 2.324 0 22.9 22.9 0 0 1 32.388 0 1.684 1.684 0 0 0 2.324 0 1.644 1.644 0 0 0 0-2.324z" class="cls-1" transform="translate(-295.402 -205.847)"/>
    <circle id="Ellipse_33" cx="1.835" cy="1.835" r="1.835" class="cls-1" transform="translate(17.165 24.862)"/>
</svg>
