<svg xmlns="http://www.w3.org/2000/svg" width="30.308" height="37.263" viewBox="0 0 30.308 37.263">
    <defs>
        <style>
            .cls-1{fill:none;stroke:#000;stroke-linecap:round;stroke-miterlimit:10;stroke-width:2.5px}
        </style>
    </defs>
    <g id="Groupe_271" transform="translate(-29.293 -477.282)">
        <path id="Tracé_592" d="M43.856 495.536a20.486 20.486 0 0 1-1.016 7.3c-1.175 3.013-3.263 3.676-5.643 3.676-3.676 0-6.655-1.58-6.655-10.975s2.979-17 6.655-17c3.145 0 5.783 5.575 6.476 13.067.127 1.256.183 2.575.183 3.932z" class="cls-1"/>
        <path id="Tracé_593" d="M78.5 514.1a8.508 8.508 0 0 1-15.511 4.836 20.485 20.485 0 0 0 1.016-7.3c0-1.357-.061-2.675-.182-3.937a8.058 8.058 0 0 1 6.166-3.244c4.711-.003 8.511 4.945 8.511 9.645z" class="cls-1" transform="translate(-20.153 -16.097)"/>
        <path id="Ligne_64" d="M0 0L0 20.773" class="cls-1" transform="translate(37.198 492.521)"/>
        <path id="Ligne_65" d="M0 0L3.428 4.16" class="cls-1" transform="translate(33.771 499.981)"/>
        <path id="Ligne_66" d="M0 2.542L2.523 0" class="cls-1" transform="translate(37.198 496.608)"/>
        <path id="Ligne_67" d="M0 0L0 16.687" class="cls-1" transform="translate(49.84 496.608)"/>
        <path id="Ligne_68" d="M3.432 0L0 3.12" class="cls-1" transform="translate(49.84 499.669)"/>
        <path id="Ligne_69" d="M0 0L2.635 1.387" class="cls-1" transform="translate(47.205 498.179)"/>
    </g>
</svg>
