<?xml version="1.0" encoding="UTF-8"?> <svg xmlns="http://www.w3.org/2000/svg" width="66.066" height="60.55" viewBox="0 0 66.066 60.55"><defs><style> .cls-2{stroke:#fff;stroke-miterlimit:10;stroke-width:4.5px;fill:none;stroke-linecap:round} </style></defs><g id="Groupe_223" transform="translate(2.25 2.624)"><g id="Groupe_203" transform="translate(0 29.549)"><g id="Groupe_33"><path id="Tracé_82-2" d="M185.541 86.852c9.526 0 9.526 9.644 19.052 9.644s9.527-9.644 19.053-9.644S233.172 96.5 242.7 96.5" class="cls-2" transform="translate(-185.541 -86.852)"></path></g><g id="Groupe_34" transform="translate(0 16.483)"><path id="Tracé_82-3" d="M185.541 103.335c9.526 0 9.526 9.644 19.052 9.644s9.527-9.644 19.053-9.644 9.526 9.644 19.053 9.644" class="cls-2" transform="translate(-185.541 -103.335)"></path></g></g><path id="Tracé_496" d="M196.613 93.053a18.784 18.784 0 1 1 37.333-2.966q0 .711-.052 1.409" class="cls-2" transform="translate(-185.541 -57.303)"></path><path id="Ligne_35" d="M0 1.241L6.668 0" class="cls-2" transform="translate(54.524 20.99)"></path><path id="Ligne_36" d="M0 0L1.241 6.668" class="cls-2" transform="translate(24.514)"></path><path id="Ligne_37" d="M0 0L5.593 3.837" class="cls-2" transform="translate(3.463 11.917)"></path><path id="Ligne_38" d="M3.837 0L0 5.593" class="cls-2" transform="translate(44.373 3.719)"></path></g></svg> 