<svg xmlns="http://www.w3.org/2000/svg" width="53.517" height="53.517" viewBox="0 0 53.517 53.517">
    <g>
        <path d="M242.577 367.9l-2.715-1.568a1.568 1.568 0 1 0-1.568 2.715l2.715 1.569a1.568 1.568 0 1 0 1.568-2.716z" transform="translate(-183.87 -318.826) translate(-8.355 -7.367)"/>
        <path d="M234.091 373.25a1.568 1.568 0 1 0-2.716 1.568l1.568 2.716a1.568 1.568 0 0 0 2.716-1.568z" transform="translate(-183.87 -318.826) translate(-7.367 -8.355)"/>
        <path d="M224.067 374.789a1.567 1.567 0 0 0-1.568 1.568v3.135a1.568 1.568 0 0 0 3.135 0v-3.135a1.568 1.568 0 0 0-1.567-1.568z" transform="translate(-183.87 -318.826) translate(-6.017 -8.717)"/>
        <path d="M239.079 351.635a1.561 1.561 0 0 0 .783-.21l2.715-1.568a1.568 1.568 0 0 0-1.568-2.716l-2.716 1.568a1.568 1.568 0 0 0 .786 2.926z" transform="translate(-183.87 -318.826) translate(-8.355 -4.378)"/>
        <path d="M244.536 357.455H241.4a1.568 1.568 0 0 0 0 3.135h3.136a1.568 1.568 0 0 0 0-3.135z" transform="translate(-183.87 -318.826) translate(-8.717 -6.017)"/>
        <path d="M226.649 357.97a9.946 9.946 0 0 0-2.339-12.67l2.414-4.181a1.568 1.568 0 0 0-.574-2.142l-4.526-2.613a4.71 4.71 0 0 0-5.41.5l-10.642-6.143c-.192-.111-.389-.216-.589-.318v-10a1.568 1.568 0 0 0-1.568-1.568h-6.271a1.569 1.569 0 0 0-1.569 1.568v9.039a13.006 13.006 0 0 0-6.692 4.377 8.9 8.9 0 0 1-1.878-5.472v-7.944a1.568 1.568 0 1 0-3.135 0v7.944a12.032 12.032 0 0 0 3.284 8.267 13.083 13.083 0 0 0 5.353 16.741l10.643 6.145a4.712 4.712 0 0 0 2.272 4.933l4.526 2.613a1.566 1.566 0 0 0 2.142-.574l2.415-4.181a9.937 9.937 0 0 0 12.144-4.311zm-27.936-36.009h3.135v18.5a1.568 1.568 0 1 1-3.135 0zm5.772 34.679l-10.409-6.01a9.93 9.93 0 0 1 1.5-17.906v7.739a4.7 4.7 0 0 0 9.407 0V334l9.432 5.445zm5.674 6.9l-3.168-1.829a1.57 1.57 0 0 1-.573-2.142l11.5-19.915a1.565 1.565 0 0 1 2.142-.574l3.168 1.829zm12.554-15.471a6.793 6.793 0 0 1-6.609 11.448z" transform="translate(-183.87 -318.826)"/>
    </g>
</svg>
