<?xml version="1.0" encoding="UTF-8"?> <svg xmlns="http://www.w3.org/2000/svg" width="61.658" height="59.783" viewBox="0 0 61.658 59.783"><defs><style> .cls-2{fill:none;stroke:#fff;stroke-linecap:round;stroke-width:4.5px;stroke-linejoin:round} </style></defs><g id="Groupe_224" transform="translate(2.25 2.25)"><g id="Groupe_203" transform="translate(0 45.639)"><g id="Groupe_34"><path id="Tracé_82-3" fill="none" stroke="#fff" stroke-linecap="round" stroke-miterlimit="10" stroke-width="4.5px" d="M294.138 103.335c9.526 0 9.526 9.644 19.052 9.644s9.527-9.644 19.053-9.644 9.526 9.644 19.053 9.644" transform="translate(-294.138 -103.335)"></path></g></g><path id="Tracé_497" d="M328.555 93.391a18.914 18.914 0 1 1-8.729-35.691s-13.783 21.387 8.729 35.691z" class="cls-2" transform="translate(-294.138 -57.696)"></path><path id="Tracé_498" d="M338.177 86.258c-.785-5.9-4.029-8.81-9.277-9.277 6.135-.7 8.744-4.176 9.277-9.276.413 6.376 3.9 8.989 9.276 9.276 0 0-9.276.599-9.276 9.277z" class="cls-2" transform="translate(-294.138 -57.696)"></path></g></svg> 