<?xml version="1.0" encoding="UTF-8"?> <svg xmlns="http://www.w3.org/2000/svg" width="39.071" height="33.453" viewBox="0 0 39.071 33.453"><path fill="#1d1d1b" d="M-719.314-128.527a4.914 4.914 0 0 0 1.468-3.5v-1.007a4.926 4.926 0 0 0-2.38-4.212 11.633 11.633 0 0 0-11.609-11.17h-11.09a11.633 11.633 0 0 0-11.609 11.17 4.927 4.927 0 0 0-2.38 4.212v1.007a4.913 4.913 0 0 0 1.471 3.508 3.886 3.886 0 0 0-.294.261 3.983 3.983 0 0 0-1.179 2.835 4.016 4.016 0 0 0 2.371 3.658v1.787a5.021 5.021 0 0 0 5.015 5.015h24.3a5.022 5.022 0 0 0 5.018-5.015v-1.789a4.019 4.019 0 0 0 1.189-.821 3.985 3.985 0 0 0 1.179-2.835 4 4 0 0 0-1.47-3.104zm-33.162-3.156a5.827 5.827 0 0 0 4.335 1.973 5.831 5.831 0 0 0 4.335-1.972 3.578 3.578 0 0 1 2.737-1.341 3.579 3.579 0 0 1 2.737 1.341A5.831 5.831 0 0 0-734-129.71a5.831 5.831 0 0 0 4.336-1.972 3.58 3.58 0 0 1 2.738-1.341 3.58 3.58 0 0 1 2.738 1.341 6.484 6.484 0 0 0 2.869 1.792 2.577 2.577 0 0 1-1.458.451h-29.21a2.6 2.6 0 0 1-2.592-2.592v-.933a3.989 3.989 0 0 1 2.103 1.281zm1.414 4.581h4l4.377 4.377-2 2zm7.307 0H-731l-3.721 3.721-2.654 2.655zm23.572-4.965a3.736 3.736 0 0 1-2.4-1.322 5.83 5.83 0 0 0-4.335-1.973 5.829 5.829 0 0 0-4.336 1.973 3.58 3.58 0 0 1-2.746 1.341 3.58 3.58 0 0 1-2.737-1.341 5.828 5.828 0 0 0-4.335-1.973 5.828 5.828 0 0 0-4.335 1.973 3.579 3.579 0 0 1-2.737 1.341 3.576 3.576 0 0 1-2.736-1.341 6.7 6.7 0 0 0-2.651-1.728 2.574 2.574 0 0 1 1.544-.515h29.21a2.6 2.6 0 0 1 2.592 2.593zm-31.952-5.9a9.3 9.3 0 0 1 7.717-7.986l-3.186 5.074a1.169 1.169 0 0 0 .369 1.611 1.162 1.162 0 0 0 .621.179 1.169 1.169 0 0 0 .991-.547l4.047-6.446h3.812l-3.267 5.2a1.169 1.169 0 0 0 .368 1.611 1.162 1.162 0 0 0 .621.179 1.169 1.169 0 0 0 .991-.547l4.048-6.446h3.169c.211 0 .418.016.625.029l-3.248 5.173a1.169 1.169 0 0 0 .368 1.611 1.161 1.161 0 0 0 .62.179 1.169 1.169 0 0 0 .991-.547l3.714-5.915a9.3 9.3 0 0 1 6.14 7.583h-29.51zm-1.948 11.358c.035-.035.07-.068.107-.1l2.956 2.958h-1.88a1.679 1.679 0 0 1-1.676-1.676 1.662 1.662 0 0 1 .493-1.184zm31.533 6.628a2.682 2.682 0 0 1-2.68 2.678h-24.3a2.681 2.681 0 0 1-2.677-2.678v-1.4h3.554l3.142 3.142a1.164 1.164 0 0 0 .826.342 1.165 1.165 0 0 0 .826-.342l2.828-2.828 2.826 2.825a1.168 1.168 0 0 0 .826.342 1.168 1.168 0 0 0 .826-.342l3.139-3.139h10.863zm1.874-4.263a1.664 1.664 0 0 1-1.182.494h-9.188l3.349-3.35h5.839a1.677 1.677 0 0 1 1.676 1.673 1.663 1.663 0 0 1-.495 1.181z" transform="translate(756.916 148.421)"></path></svg> 