<svg xmlns="http://www.w3.org/2000/svg" width="38.004" height="36.763" viewBox="0 0 38.004 36.763">
    <defs>
        <style>
            .cls-1{fill:none;stroke:#1d1d1b;stroke-width:2px;stroke-linecap:round;stroke-linejoin:round}
        </style>
    </defs>
    <g id="Groupe_546" transform="translate(-218.096 -19.949)">
        <path id="Tracé_578" d="M298.2 31.232c-.311 1.543.843 3.017 2.152 3.89s2.847 1.409 4.016 2.462a5.913 5.913 0 0 1 1.923 4.494 8.639 8.639 0 0 1-1.41 4.151 16.426 16.426 0 0 1-7.314 6.448 9.794 9.794 0 0 1-4.02.959 5.474 5.474 0 0 1-3.8-1.447 3.828 3.828 0 0 1-1.038-3.814 1.991 1.991 0 0 1 .628-.965 2.04 2.04 0 0 1 1.953-.153 3.455 3.455 0 0 1 2.142 3.487 4.851 4.851 0 0 1-2.364 3.358 30.926 30.926 0 0 1-3.83 1.824A6.972 6.972 0 0 0 284 58.564a3.085 3.085 0 0 0-.369 2.348 1.983 1.983 0 0 0 1.754 1.458" class="cls-1" transform="translate(-51.195 -8.17)"/>
        <circle id="Ellipse_47" cx="1.315" cy="1.315" r="1.315" class="cls-1" transform="translate(234.303 52.714)"/>
        <path id="Ligne_60" d="M0 0.414L1.989 0" class="cls-1" transform="translate(236.934 53.23)"/>
        <path id="Tracé_579" d="M349.5 22.012a1.065 1.065 0 0 1-1.063 1.063 1.045 1.045 0 0 1-.48-.116 1.059 1.059 0 0 1-.583-.947 1.046 1.046 0 0 1 .158-.555 1.062 1.062 0 0 1 1.969.555z" class="cls-1" transform="translate(-101.922)"/>
        <path id="Tracé_580" fill="none" stroke="#1d1d1b" stroke-miterlimit="10" stroke-width="2px" d="M219.614 57.837a.514.514 0 0 1-.5-.641c4.53-17.74 14.468-29.97 27.265-33.553a.514.514 0 1 1 .277.989c-12.434 3.482-22.11 15.443-26.547 32.818a.514.514 0 0 1-.495.387z" transform="translate(0 -2.125)"/>
        <path id="Tracé_581" d="M267.667 26.756a17 17 0 0 1-5.273 6.148 5.218 5.218 0 0 1-2.22.87 2.663 2.663 0 0 1-2.207-.724 10.358 10.358 0 0 1-1.677 5.929c-1.255 1.668-3.635 2.634-5.511 1.72a4.8 4.8 0 0 1-.025 3 6.874 6.874 0 0 1-1.6 2.968A4.171 4.171 0 0 1 246.128 48" class="cls-1" transform="translate(-21.475 -4.614)"/>
    </g>
</svg>
