<svg xmlns="http://www.w3.org/2000/svg" id="instagram" width="36" height="36" viewBox="0 0 36 36">
    <defs>
        <style>
            .cls-2{fill:#fff;stroke:#fff;stroke-width:.4px}
        </style>
    </defs>
    <g id="Instagram-2">
        <circle id="instagram-back" cx="18" cy="18" r="18" fill="#e6534e"/>
    </g>
    <g id="instagram-3" transform="translate(11.159 11.157)">
        <path id="Tracé_114" d="M15.205 4.35a5.407 5.407 0 0 0-.344-1.8A3.791 3.791 0 0 0 12.7.39a5.421 5.421 0 0 0-1.8-.344C10.109.009 9.858 0 7.849 0S5.588.009 4.8.043A5.408 5.408 0 0 0 3 .387a3.61 3.61 0 0 0-1.312.856 3.643 3.643 0 0 0-.849 1.31 5.421 5.421 0 0 0-.344 1.8C.457 5.14.449 5.391.449 7.4s.009 2.26.043 3.05a5.407 5.407 0 0 0 .344 1.8A3.79 3.79 0 0 0 3 14.41a5.422 5.422 0 0 0 1.8.344c.789.035 1.041.043 3.05.043s2.26-.009 3.05-.043a5.406 5.406 0 0 0 1.8-.344 3.785 3.785 0 0 0 2.165-2.165 5.425 5.425 0 0 0 .344-1.8c.035-.789.043-1.041.043-3.05s0-2.26-.038-3.05zm-1.333 6.041a4.056 4.056 0 0 1-.254 1.373 2.455 2.455 0 0 1-1.4 1.4 4.07 4.07 0 0 1-1.373.254c-.78.035-1.015.043-2.989.043s-2.211-.009-2.989-.043a4.054 4.054 0 0 1-1.377-.248 2.277 2.277 0 0 1-.85-.552 2.3 2.3 0 0 1-.552-.85 4.071 4.071 0 0 1-.254-1.373C1.8 9.614 1.79 9.38 1.79 7.406s.009-2.211.043-2.989a4.054 4.054 0 0 1 .254-1.373 2.249 2.249 0 0 1 .555-.85 2.3 2.3 0 0 1 .85-.552 4.073 4.073 0 0 1 1.373-.254c.78-.035 1.015-.043 2.989-.043s2.211.009 2.989.043a4.056 4.056 0 0 1 1.373.254 2.275 2.275 0 0 1 .85.552 2.3 2.3 0 0 1 .552.85 4.072 4.072 0 0 1 .254 1.373c.035.78.043 1.015.043 2.989s-.009 2.206-.043 2.986zm0 0" class="cls-2" transform="translate(-.449)"/>
        <path id="Tracé_115" d="M128.75 124.5a3.8 3.8 0 1 0 3.8 3.8 3.8 3.8 0 0 0-3.8-3.8zm0 6.267a2.466 2.466 0 1 1 2.466-2.466 2.466 2.466 0 0 1-2.466 2.466zm0 0" class="cls-2" transform="translate(-121.353 -120.901)"/>
        <path id="Tracé_116" d="M364.225 89.489a.887.887 0 1 1-.888-.887.888.888 0 0 1 .888.887zm0 0" class="cls-2" transform="translate(-351.988 -86.041)"/>
    </g>
</svg>
