<svg xmlns="http://www.w3.org/2000/svg" width="38.894" height="26.867" viewBox="0 0 38.894 26.867">
    <path stroke="#000" d="M33.383-5.582H4.511A4.513 4.513 0 0 0 0-1.071v16.845a4.513 4.513 0 0 0 4.511 4.511h28.872a4.513 4.513 0 0 0 4.511-4.511V-1.071a4.513 4.513 0 0 0-4.511-4.511zM4.511-3.778h28.872a2.718 2.718 0 0 1 2.662 2.2l-17.1 9.528L1.85-1.576a2.718 2.718 0 0 1 2.662-2.2zm28.872 22.249H4.511A2.715 2.715 0 0 1 1.8 15.765V.463l16.7 9.311a.951.951 0 0 0 .442.118.855.855 0 0 0 .442-.118L36.089.463v15.3a2.709 2.709 0 0 1-2.706 2.708zm0 0" transform="translate(.5 6.082)"/>
</svg>
