<svg xmlns="http://www.w3.org/2000/svg" width="53.182" height="35.142" viewBox="0 0 53.182 35.142">
    <defs>
        <style>
            .cls-1{fill:none;stroke:#000;stroke-linecap:round;stroke-linejoin:round;stroke-miterlimit:10;stroke-width:3px}
        </style>
    </defs>
    <g id="Groupe_263" transform="translate(-40.184 -217.784)">
        <path id="Tracé_567" d="M171.147 234.257l-6.2 2.6a2.019 2.019 0 0 0-.115-.377l-2.9-6.911a1.98 1.98 0 0 0-.188-.345l6.2-2.6a1.98 1.98 0 0 0 .115.376l2.9 6.911a2.018 2.018 0 0 0 .188.346z" class="cls-1" transform="translate(-82.884 -5.061)"/>
        <path id="Tracé_568" d="M129.887 242.943l-12.905 5.418-4.382-10.428 12.905-5.418a1.916 1.916 0 0 1 2.309.675 1.98 1.98 0 0 1 .188.345l2.9 6.911a2.016 2.016 0 0 1 .115.377 1.917 1.917 0 0 1-1.13 2.12z" class="cls-1" transform="translate(-48.956 -9.026)"/>
        <path id="Tracé_569" d="M75.485 260.559l-15.635 6.564L53.923 253l15.635-6.564a1.913 1.913 0 0 1 2.5 1.02l4.451 10.6a1.913 1.913 0 0 1-1.024 2.503z" class="cls-1" transform="translate(-8.443 -18.639)"/>
        <path id="Tracé_570" d="M50.508 281.627a1.913 1.913 0 0 1-2.5-1.02l-6.169-14.695a1.913 1.913 0 0 1 1.02-2.5 1.913 1.913 0 0 1 2.5 1.02l6.169 14.695a1.909 1.909 0 0 1-.273 1.932 1.888 1.888 0 0 1-.747.568z" class="cls-1" transform="translate(0 -30.36)"/>
        <path id="Tracé_571" d="M187.2 229.87a1.9 1.9 0 0 1-1.46 0 1.929 1.929 0 0 1-.849-.678 2.016 2.016 0 0 1-.189-.347l-2.9-6.911a1.975 1.975 0 0 1-.115-.376 1.908 1.908 0 0 1 3.632-1.1l2.9 6.911a1.913 1.913 0 0 1-1.019 2.501z" class="cls-1" transform="translate(-96.628)"/>
        <path id="Tracé_572" d="M48.57 288.062a12.15 12.15 0 0 1-5.105-12.162z" class="cls-1" transform="translate(-1.091 -39.081)"/>
    </g>
</svg>
