<svg version="1.1" xmlns="http://www.w3.org/2000/svg" xmlns:xlink="http://www.w3.org/1999/xlink" x="0px" y="0px"
	 viewBox="0 0 6.5 8.8" style="enable-background:new 0 0 6.5 8.8;" xml:space="preserve">
<style type="text/css">
	.st0{fill:#F37960;stroke:#F37960;stroke-width:0.3;}
	.st1{fill:#F37960;}
</style>
<g id="Calque_1">
	<g>
		<g>
			<g>
				<path class="st0" d="M3.5,0.5C3.4,0.4,3.2,0.3,3.1,0.4c0,0-0.1,0-0.1,0.1C2.7,0.9,0.4,4.1,0.4,5.6c0,1.6,1.3,2.9,2.9,2.9
					s2.9-1.3,2.9-2.9C6.1,4.1,3.8,0.9,3.5,0.5z M3.3,7.8c-1.2,0-2.2-1-2.2-2.2c0,0,0,0,0,0c0-0.9,1.4-3.1,2.2-4.3
					c0.8,1.1,2.2,3.4,2.2,4.3C5.5,6.8,4.5,7.8,3.3,7.8C3.3,7.8,3.3,7.8,3.3,7.8z"/>
			</g>
		</g>
	</g>
	<path class="st1" d="M3.3,1c0,0,2.3,3.2,2.2,4.3S5,8,3.3,7.8c-1.7-0.3-2.8-2-2.4-2.6S3.3,1,3.3,1z"/>
</g>
<g id="Calque_2">
</g>
</svg>
