<svg version="1.1" xmlns="http://www.w3.org/2000/svg" xmlns:xlink="http://www.w3.org/1999/xlink" x="0px" y="0px"
	 viewBox="0 0 6.7 8.6" style="enable-background:new 0 0 6.7 8.6;" xml:space="preserve">
<style type="text/css">
	.st0{fill:#D5324E;stroke:#D5324E;stroke-width:0.3;}
</style>
<g id="Calque_1">
</g>
<g id="Calque_2">
	<g>
		<g>
			<g>
				<g>
					<path class="st0" d="M3.6,0.4C3.5,0.3,3.3,0.2,3.1,0.4c0,0-0.1,0-0.1,0.1C2.8,0.8,0.5,4,0.5,5.5c0,1.6,1.3,2.9,2.9,2.9
						s2.9-1.3,2.9-2.9C6.2,4,3.9,0.8,3.6,0.4z M3.3,7.7c-1.2,0-2.2-1-2.2-2.2c0,0,0,0,0,0c0-0.9,1.4-3.1,2.2-4.3
						c0.8,1.1,2.2,3.4,2.2,4.3C5.5,6.7,4.5,7.7,3.3,7.7C3.3,7.7,3.3,7.7,3.3,7.7z"/>
				</g>
			</g>
		</g>
		<path class="st0" d="M3.3,0.9c0,0,2.4,3.3,2.4,4.3c-0.1,1,0.1,2-0.7,2.4C4.1,8,2.4,8.2,2,7.8S0.7,6,0.8,5.5S3.3,0.9,3.3,0.9z"/>
	</g>
</g>
</svg>
