<svg xmlns="http://www.w3.org/2000/svg" width="44.432" height="38.645" viewBox="0 0 44.432 38.645">
    <defs>
        <style>
            .cls-1{fill:none;stroke:#000;stroke-linecap:round;stroke-linejoin:round;stroke-width:3px}
        </style>
    </defs>
    <g id="Groupe_392" transform="translate(-4202.509 210.936)">
        <path id="Tracé_748" d="M4236.844-188.586c0 6.69-5.426 13.312-12.117 13.312a11.044 11.044 0 0 1-7.106-2.718 13.312 13.312 0 0 1-2.026-2.113c-.226-.291-.443-.591-.641-.9a14.258 14.258 0 0 1-1.375-2.639 13.425 13.425 0 0 1-.448-1.32 13.181 13.181 0 0 1-.508-3.027c-.01-.2-.014-.4-.014-.6a9.626 9.626 0 0 1 .046-1c.212-2.169 1.158-3.17 2.616-3.59 2.219-.637 5.629.074 9.454.074s7.23-.711 9.45-.074c1.462.415 2.408 1.417 2.621 3.585a9.947 9.947 0 0 1 .048 1.01z" class="cls-1"/>
        <path id="Tracé_755" d="M4218.032-199.724a8.849 8.849 0 0 1-9.113 2.884 1.019 1.019 0 0 1-.046-.1 8.826 8.826 0 0 1 4.253-11.735 8.823 8.823 0 0 1 2.617-.76l-.946 5.518 5.255-1.938a8.784 8.784 0 0 1-2.02 6.131z" class="cls-1"/>
        <path id="Tracé_756" d="M4215.274-193.172c-1.458.42-2.4 1.421-2.616 3.59a3.246 3.246 0 0 1-.665-1.052l-3.082-6.2a.78.78 0 0 1-.037-.106 1.01 1.01 0 0 0 .045.1 8.859 8.859 0 0 0 5.2-.18z" class="cls-1"/>
        <path id="Tracé_757" d="M4240.563-196.9c-.009.018-.018.042-.028.06a8.828 8.828 0 0 1-10.838-6.2 8.87 8.87 0 0 1-.3-2.821l5.251 1.938-.946-5.518a8.83 8.83 0 0 1 7.633 9.885 8.808 8.808 0 0 1-.777 2.652z" class="cls-1"/>
        <path id="Tracé_758" d="M4240.564-196.9a.513.513 0 0 1-.023.065l-3.082 6.2a3.3 3.3 0 0 1-.66 1.047c-.212-2.169-1.158-3.17-2.621-3.585l1.149-3.848a8.872 8.872 0 0 0 5.209.18z" class="cls-1"/>
        <path id="Tracé_759" d="M4212.751-186.719l-4.713-.93-3.417 4.085" class="cls-1"/>
        <path id="Tracé_760" d="M4214.355-182h-4.372l-4.255 4.028" class="cls-1"/>
        <path id="Tracé_761" d="M4217.025-178.522l-4.417 1-2.114 3.149" class="cls-1"/>
        <path id="Ligne_116" d="M0.534 3.226L0 0" class="cls-1" transform="translate(4220.066 -196.527)"/>
        <path id="Tracé_762" d="M4236.7-186.719l4.713-.93 3.417 4.085" class="cls-1"/>
        <path id="Tracé_763" d="M4235.094-182h4.373l4.255 4.028" class="cls-1"/>
        <path id="Tracé_764" d="M4232.424-178.522l4.417 1 2.115 3.149" class="cls-1"/>
        <path id="Ligne_117" d="M0 3.226L0.534 0" class="cls-1" transform="translate(4228.849 -196.527)"/>
    </g>
</svg>
