<svg xmlns="http://www.w3.org/2000/svg" width="2546.552" height="229.332" viewBox="0 0 2546.552 229.332">
    <path fill="#ffd202" d="M2103.629-105.5v-229.329c-28.444 0-42.651 9.671-56.389 19.024-12.927 8.8-25.137 17.112-49.773 17.112s-36.845-8.313-49.772-17.112c-13.738-9.352-27.943-19.024-56.389-19.024s-42.649 9.671-56.387 19.024c-12.924 8.8-25.134 17.112-49.768 17.112s-36.843-8.313-49.768-17.112c-13.638-9.284-27.743-18.877-55.77-19.017v-.006h-.616v.006c-28.029.14-42.135 9.733-55.772 19.017-12.927 8.8-25.136 17.112-49.773 17.112s-36.846-8.313-49.773-17.112c-13.738-9.352-27.944-19.024-56.388-19.024s-42.649 9.671-56.387 19.024c-12.925 8.8-25.134 17.112-49.768 17.112s-36.844-8.313-49.769-17.112c-13.738-9.352-27.944-19.024-56.384-19.024s-42.65 9.671-56.389 19.024c-12.927 8.8-25.136 17.112-49.772 17.112s-36.846-8.313-49.773-17.112c-13.738-9.352-27.945-19.024-56.389-19.024s-42.648 9.671-56.385 19.024c-12.925 8.8-25.134 17.112-49.77 17.112s-36.842-8.313-49.768-17.112c-13.737-9.353-27.937-19.024-56.385-19.024s-42.649 9.671-56.388 19.024c-12.927 8.8-25.136 17.112-49.773 17.112s-36.846-8.313-49.772-17.112c-13.739-9.352-27.945-19.024-56.388-19.024s-42.65 9.671-56.387 19.024c-12.926 8.8-25.135 17.112-49.769 17.112s-36.844-8.313-49.77-17.112c-13.636-9.284-27.741-18.877-55.768-19.017v-.006h-.616v.006c-28.029.14-42.136 9.733-55.773 19.017-12.926 8.8-25.136 17.112-49.772 17.112s-36.845-8.313-49.772-17.112c-13.738-9.352-27.945-19.024-56.389-19.024s-42.649 9.671-56.385 19.024c-12.927 8.8-25.135 17.112-49.771 17.112s-36.842-8.313-49.768-17.112c-13.737-9.352-27.942-19.024-56.384-19.024s-42.651 9.671-56.389 19.024c-12.927 8.8-25.136 17.112-49.772 17.112s-36.846-8.313-49.772-17.112c-13.739-9.352-27.945-19.024-56.389-19.024s-42.649 9.671-56.387 19.024c-12.926 8.8-25.135 17.112-49.769 17.112s-36.844-8.313-49.768-17.112c-13.738-9.352-27.942-19.024-56.384-19.024V-105.5z" transform="translate(442.923 334.829)"/>
</svg>
