<svg version="1.1" xmlns="http://www.w3.org/2000/svg" xmlns:xlink="http://www.w3.org/1999/xlink" x="0px" y="0px"
	 viewBox="0 0 6.6 9.1" style="enable-background:new 0 0 6.6 9.1;" xml:space="preserve">
<style type="text/css">
	.st0{fill:#FFD202;stroke:#FFD202;stroke-width:0.3;}
</style>
<g id="Calque_1">
	<g>
		<g>
			<g>
				<path class="st0" d="M3.6,0.5C3.5,0.4,3.3,0.4,3.1,0.5c0,0-0.1,0-0.1,0.1C2.8,0.9,0.5,4.1,0.5,5.6c0,1.6,1.3,2.9,2.9,2.9
					s2.9-1.3,2.9-2.9C6.2,4.1,3.9,0.9,3.6,0.5z M3.3,7.8c-1.2,0-2.2-1-2.2-2.2c0,0,0,0,0,0c0-0.9,1.4-3.1,2.2-4.3
					c0.8,1.1,2.2,3.4,2.2,4.3C5.5,6.8,4.5,7.8,3.3,7.8C3.3,7.8,3.3,7.8,3.3,7.8z"/>
			</g>
		</g>
	</g>
</g>
<g id="Calque_2">
	<path class="st0" d="M3.3,0.9c0,0,2.4,3.3,2.4,4.3s0.1,2-0.7,2.4S2.4,8.2,2,7.8C1.6,7.3,0.7,6,0.8,5.5S3.3,0.9,3.3,0.9z"/>
</g>
</svg>
