<svg xmlns="http://www.w3.org/2000/svg" width="2581.621" height="625.69" viewBox="0 0 2581.621 625.69">
    <path fill="none" stroke="#9f9678" stroke-dasharray="30" stroke-linecap="round" stroke-linejoin="round" stroke-width="6px" d="M343.887 609.279C489.614 714.129 725.5 730.487 929.353 725.257s398.821-44.18 516.909-103.292c56.163-28.107 95.231-66 49.74-96.431-51.816-34.666-202.259-40.325-286.382-14.824s-99.3 72.465-52.01 107.935c47.278 35.471 145.76 59.876 251.114 71.928 141.767 16.215 300.178 12.149 436.23-9.359s249.248-59.962 320.622-106.3c83.528-54.236 109.653-117.021 172.4-174.668 61.411-56.409 158.589-107.884 282.295-149.52 78.827-26.533 173.027-49.793 280.749-55.011" transform="rotate(-2 -2782.75 9871.713)"/>
</svg>
