<svg xmlns="http://www.w3.org/2000/svg" width="2173.689" height="2244.023" viewBox="0 0 2173.689 2244.023">
    <path fill="none" stroke="#161615" stroke-dasharray="30" stroke-linecap="round" stroke-linejoin="round" stroke-width="6px" d="M-1525.246-1018.092s508.292-57.274 675.206 297.847 367.21 235.9 528.56 273.949c76.066 17.937 106.449 102.629 139.361 158.819 52.742 90.048 124.638 161.183 234.357 192.246 80.683 22.843 162.516 11.278 236.992 53.237 63.955 36.031 117.559 82.66 148.587 146.136 62.853 128.584 25.172 298.7-73.06 404.976-142.942 154.644-394.3 131.7-578.255 69.055-65.572-22.331-222.9-84.276-290.6-98.541-124.307-26.192-161.039 7.881-289.4 32.638-145.856 28.131-300.278 100.189-353.561 235.772-44.864 106.965-20.654 216.788 48.052 278.915 114.378 76.912 304.322-57.528 426.795-100.611 144.9-12.677 123.55 2.347 290.465 37.859" transform="rotate(5.13 -12382.947 19127.147)"/>
</svg>
