<svg version="1.1" id="Calque_1" xmlns="http://www.w3.org/2000/svg" xmlns:xlink="http://www.w3.org/1999/xlink" x="0px" y="0px"
	 viewBox="-95 293.4 419.1 207.6" style="enable-background:new -95 293.4 419.1 207.6;" xml:space="preserve">
<style type="text/css">
	.st0{fill:#FFFFFF;stroke:#000000;stroke-width:3;stroke-miterlimit:10;}
</style>
<g id="Calque_2">
	<g id="Calque_1-2">
		<path class="st0" d="M-70.4,376.8c4.5-3.2,8.7-6.7,12.7-10.5c-0.1,1.2,0,2.4,0.2,3.6c3,10.1,6.2,12.5,8.7,15.7
			c2.5,3.2,14.4,10.3,14.8,10.5c1.7,1.2,2.9-0.4,3.9-2.2c1.1-2,19.6-32.9,29.2-52.6c-1,12.7-1.7,32.4-1.8,33.5
			c-0.2,0.9,0,1.8,0.6,2.5c0.6,0.5,9.1,6.3,9.6,6.5s1.1-0.5,1.7-1.3c0.5-0.7,25-28.2,30.2-35.1c-4.9,12.5-9.1,25.2-12.7,38.1
			c-0.3,1.1,0.2,2.3,1.2,2.8c0.9,0.7,13.4,9,13.8,9.2s1.6-0.8,2.5-1.5c0.8-0.7,14.9-10.7,17.6-12.9c0,3,3.3,5.8,4.1,6.5
			c2.1,1.9,8.2,5.1,11,6.6c1.7,1,3.8,1,5.5,0.2c2.2-1,9.8-7,13.6-10.1c-0.2,0.6-0.3,1.2-0.5,2.1c-0.1,0.5,0.1,1,0.5,1.3
			c3.5,2.8,9.8,5.7,12.1,6.8c0.6,0.3,1.3,0.2,1.8-0.1c3.5-2.2,13.7-10.8,21.8-17.8c-1.7,4.1-2.9,8-4.1,11.1c0,0.1,0,0.2,0.1,0.2
			c3.8,2.7,11.7,7,13.9,8.2c0.3,0.2,0.6,0.1,0.7-0.2c0,0,0.1-0.1,0.1-0.2c2.4-7.5,7-18.2,11.8-28.8c2,5,5.2,18,6.8,20.9
			c0.9,1,7.2,4.5,10,6.1c0.6,0.4,1.4,0.4,2,0.1c6.2-3,15.8-10.9,26.1-18.1c0.2,1.1,0.6,5.6,2.4,8.2c5.2,7.6,14.7,10.5,21.1,11.8
			c14.7,3,49.2-0.7,73.6-34.6c0.3-0.3,0.2-0.8-0.1-1.1c-5.6-5.1-11.6-9.6-18-13.6c-0.2-0.1-0.6,0-0.7,0.2c0,0,0,0,0,0.1
			c-10.4,25.8-47.9,39.1-60,29.9c0,0-0.5-4,0.4-6.5c18.2-2.3,34.8-13,42.6-22c5.8-6.6,7.7-12.9,7.9-15.5c0.2-2.7-0.7-4-2.7-7.1
			c-1.3-2-4.9-6.4-4.9-6.4c-3.6-4.3-8.9-5.3-15.8-4.5c-6.5,0.7-31.1,8.3-45.4,41.3c-7.8,6.5-16,12.4-24.7,17.7
			c-3.5-8.2-6.6-17.5-6.6-17.5c23-5.7,39.7-21,42.2-29.8c0-0.1,0-0.2-0.1-0.3c-4.6-4.5-14-8.6-15.9-9.4c-0.2-0.1-0.4,0-0.5,0.2
			c-4.5,9-18.1,20.2-26.5,22.5c8.8-17.7,16.7-32.4,18-34.6c0.1-0.1,0-0.2-0.1-0.3c-3.7-3.4-13.5-8-15.2-8.8c-0.1-0.1-0.3,0-0.4,0.1
			c0,0,0,0,0,0c-4.1,7.8-14.9,28.2-26.3,51.5c-12.3,12.4-23.8,21.2-26.7,23.2c4.4-13.4,19.4-39.2,21.6-43c0.2-0.3,0.1-0.6-0.1-0.8
			c-3.5-3.2-11.4-7.1-13.4-8.1c-0.3-0.1-0.6-0.1-0.8,0.2c-2,2.6-3.8,5.3-5.4,8.2c-0.4-4.6-12.7-8.6-15.5-9.1
			c-5.5-0.9-16.4,2.3-25.9,12.8c-8.5,9.3-14.3,20.9-16.6,33.3c-3.7,2.7-7.5,5.2-11.5,7.5c2-8.5,21.4-61.2,25.4-71.3
			c0-0.1,0-0.2-0.1-0.3c-3.2-2.8-11.9-7.2-14.8-7.9c-0.1,0-0.2,0-0.3,0.1c-4.9,6.1-43.8,53.9-43.8,53.9c1.8-20.5,5.2-45.8,5.3-46.6
			c0,0,0,0,0,0c-4.3-3.4-11.5-6.3-15.5-8c-0.1,0-0.2,0-0.2,0.1c-8,15.5-41.7,74.3-42.6,76.2c-2.6-4.8-4.1-10.1-4.3-15.5
			c3.4-3.1,6.3-6.9,8.5-11c1.1-1.5,2.2-8.3,1-9.9c-0.8-1-12-7.4-12-7.4c-1.6-0.7-3.5-0.4-4.8,0.8c-2.7,2.3-5,5-6.8,8
			c-0.8,2.4-1.3,5-1.3,7.6c-13,7-23.9,11-37.4,15.1c-0.1,0-0.2,0.2-0.2,0.3c0,0,0,0,0,0c3.4,7,13.8,15.4,24.3,19
			C-70.6,376.8-70.5,376.8-70.4,376.8z M250.3,334.2c0,4.1-15.7,20.1-30.2,22.6C223.7,347.1,239.4,333.6,250.3,334.2z M106.7,337
			c2.1,2.5,1.2,9.1-1.7,16.8c-1.1,2.8-1.1,2.8-2.1,5.5c-2.4,3.7-15.4,17.9-23.8,20C75.2,359.8,95.3,334.8,106.7,337z"/>
		<path class="st0" d="M284.2,455.4c15.2-7.8,31.8-13,39.9-13.9c-11.1-12.9-22.2-18.3-22.2-18.3c-9.4,3.6-18.3,8.3-26.6,13.9
			c-1.2-2.5-2.2-5.1-3.1-7.8c1-1.3,2.8-3.3,4-4.5c0.6-0.6,0.6-1.6,0-2.3c0,0,0,0,0,0c-2.7-2.5-9.2-8.7-11.9-11.1
			c-0.7-0.6-1.6-0.8-2.5-0.5c-6.8,2.5-15.4,11.2-15.9,12s1.3,6.8,1.3,6.8c-11.5,16-31,43.9-48.9,50.4c-8.6,3.1-16.1,2.3-18.3-0.6
			l0.3-3c21.7-3.7,33.7-12.6,43.2-23.4c9-10.2,8.5-19.5,6.9-21.4c-8.8-11.1-10.8-12.6-20-12.1c-6.6,0.4-19.5,3.2-31.6,15.2
			c0,0-8,0-9.5,0c0.9-1.6,1.7-3.2,2.4-4.8c0.3-1.5-0.3-3-1.4-4c-1.6-1.8-9.6-6.8-10.9-7.5c-1.4-0.8-3,0.3-4,1
			c-1.7,1.2-8.6,5.5-9.1,6.2s-6.8,11-7.5,12.1c-0.6,1.1-0.5,2.1,1.1,3.7c1.6,1.5,5.1,5.6,5.1,5.6c-6.1,10-15.4,23.3-17.1,25.5
			c-1.7,2.3-9.3,7.6-10.5,8.2c-2.6-9.8-0.5-23.3,0-25.5c6.8-7.9,15.2-21.6,15.8-24.6s0.9-3.9-0.3-5.1s-11.8-6.7-13-7.2
			c-1.6-0.8-2.1-0.3-3.4,0.9s-8.7,9.8-9.8,11.1c-2.5,3.9-7.5,17.6-8.2,28.2c-8.2,8.1-21.2,16.9-21.2,16.9c3-14.7,19.5-40,21.6-43.8
			c0.1-0.2,0.1-0.6-0.2-0.7c-5.9-3.9-12.4-7.7-14.3-8.6c-0.2-0.1-0.5,0-0.7,0.2c-1.9,2.9-4,6.1-4,6.1c-0.2-4.2-12.5-9-15.3-9.1
			C58.8,419.2,47.9,423,38,434c-1.4,0.1-7.4,0.2-8.3,0.2c2.6-5.1,2.9-6.7,4.2-9.7c0.8-1.4-0.2-3.6-1-4.6c-0.7-0.8-9.3-6.2-12.7-7.9
			c-0.9-0.4-1.9-0.1-2.5,0.6c-5.4,4-7.3,6.9-7.6,7.3c-0.3,0.4-6.7,8.3-6.4,14.3c0.2,3.8,2.9,9.2,2.9,9.2C1.6,455.7-5.3,467-13.8,477
			c0.3-15.3,4.7-35,4.7-35c1.5-1.9,2.9-4,4.1-6.1c0.2-0.3,0.3-0.6,0.3-0.9c0.2-1.6,1-6.6,1-7.2c0-0.8-0.3-1.5-0.9-2
			c-0.7-0.7-12.3-7.7-14.5-8.7c-1.2,0.4-2.3,1.1-3.1,2.1c-1.5,2.2-3.3,7-4,8.9c-0.4,1.1-1.9,12.2-1.9,12.2s-12.5,18.5-25,32
			c0.5-23.2,14.4-56.2,14.5-56.4c0.1-0.2,0.2-1.2-1.3-2.1s-12.4-7.3-13-7.6c-0.7-0.2-1.5-0.1-2.1,0.4c-0.5,0.4-9,3.1-23.6,22.8
			c-0.2,0.3-0.2,0.7,0.1,0.9c2.7,2.1,11.2,6.3,14.7,7.8c0.1,0,0.1,0,0.2,0c-0.4,0.3-1.3,1.3,0,0c-4.5,12.5-6.4,27.4-7.1,32.9
			c-0.7,5.5-0.3,15,0.5,17.7c5,4.2,13.6,8.3,15.5,9.4c0.2,0.1,0.5,0.1,0.7,0c5.4-3.9,18.9-17.9,24.4-25.1c-0.9,9.9,0.1,18.3,1,19.2
			s14.2,7.4,15.2,8s3.1-0.4,5.2-2.4c8.1-8,18.9-22.6,29.4-46.8l0.7-1.3l5.5-0.1c-2.1,4.6-4.5,14.6-5.5,21.8
			c-0.7,4.7-0.7,13.1,2.5,16.4c3.6,3.6,13.1,8.6,14.5,9.1c2.7,1,4.9-0.4,6.6-1.1c1.6-0.8,7-4.5,12.1-9.3c0,0.5-0.2,3.6-0.2,4
			c2.3,3.1,15.1,8.4,15.7,8.4s15-10.4,25.8-21.1c0.1,3.1,1.2,10.9,1.9,12.2c1,1.9,13.8,7.8,15.1,8.4c2,1,4.4,1,6.4-0.1
			c3.4-2,14.8-11.8,16.1-12.9s17.1-21.6,24.8-36.1h5.9c-1.4,2.8-12.9,19.2-6.3,37.5c3.2,9,17.9,13.8,31,12c7.5-1,14.7-3.5,26.2-12.1
			c12-9,27.5-30,37.9-42.6c0.6,1.7,1.4,3.4,2.2,5c-8.8,8.1-16.6,17.3-23.1,27.4c-3.3,4.8-3.7,8.5-2,10.9c2.2,3.2,8.9,10.4,13.7,12.6
			s18,0.8,26.8-3.1c12.2-5.4,18-17.1,17.2-22.2C292.5,472.2,288.5,464.3,284.2,455.4z M211.9,435.9c1.7,10.3-20.9,22.7-27.4,23.6
			C189.4,444.7,204.2,434.8,211.9,435.9z M70.2,447.7c-1.6,4.7-3.5,9.2-5.7,13.7c-8.9,9.2-20.6,17.3-23.5,17.7
			c-3.2-22,15.6-45,27.8-43.1C71,438.4,71.1,444.1,70.2,447.7L70.2,447.7z M263.6,484.2c-7.3,1.7-10.9,0.3-10.9,0.3
			c1.6-7.2,8-14.1,16.5-20.2c1.8,2.7,3.4,5.4,4.9,8.2C274.7,474.8,275,481.5,263.6,484.2z"/>
	</g>
</g>
</svg>
